<svg version="1.1" id="Layer_1" xmlns="http://www.w3.org/2000/svg" xmlns:xlink="http://www.w3.org/1999/xlink" x="0px" y="0px"
	 width="100%" viewBox="0 0 512 512" enable-background="new 0 0 512 512" xml:space="preserve">
<path fill="#5ACE9F" opacity="1.000000" stroke="none" 
	d="
M1.000000,50.000000 
	C1.000000,42.979053 1.000000,35.958103 1.194412,28.142773 
	C1.597499,25.565056 1.806174,23.781725 2.419579,22.001623 
	C7.947950,22.282251 13.073890,22.828009 18.194782,22.784161 
	C30.950243,22.674946 43.703667,22.077789 56.457417,22.092875 
	C67.882919,22.106388 79.307007,22.707520 90.733391,22.979368 
	C94.046944,23.058203 97.366211,22.854540 100.682922,22.851551 
	C112.433609,22.840961 124.185593,22.972731 135.934677,22.839352 
	C148.522812,22.696444 161.108124,22.109550 173.694870,22.103050 
	C183.620392,22.097923 193.548004,22.992455 203.471527,22.935360 
	C224.706131,22.813181 245.938049,22.273378 267.172577,22.046247 
	C271.971924,21.994913 276.777222,22.731052 281.580109,22.735302 
	C289.337219,22.742165 297.095428,22.269024 304.851715,22.305593 
	C326.562103,22.407953 348.271667,22.801241 369.981720,22.813717 
	C382.568390,22.820950 395.155151,22.115566 407.742188,22.105692 
	C417.334412,22.098167 426.928894,22.989759 436.519257,22.934523 
	C455.537048,22.824982 474.551819,22.233269 493.569794,22.066936 
	C499.705048,22.013275 505.846527,22.667824 512.014038,23.321281 
	C512.362000,24.429440 512.681030,25.214714 513.000000,25.999996 
	C513.000000,33.687576 513.000000,41.375153 512.552612,49.531609 
	C503.995728,49.994034 495.885834,49.935604 487.776733,49.993717 
	C476.590454,50.073875 465.404877,50.245296 454.218903,50.370457 
	C450.754333,50.409225 447.284515,50.556087 443.825745,50.425182 
	C434.764526,50.082233 425.708679,49.287399 416.649567,49.270145 
	C402.613251,49.243404 388.576477,49.747269 374.538940,49.961700 
	C362.034607,50.152714 349.529053,50.264046 337.023834,50.393337 
	C333.560608,50.429146 330.095459,50.464390 326.633331,50.394638 
	C316.757660,50.195679 306.883789,49.812828 297.007843,49.762360 
	C291.614746,49.734798 286.218567,50.456806 280.824371,50.448418 
	C270.128632,50.431782 259.433807,50.092941 248.737640,49.985924 
	C242.338181,49.921890 235.934647,50.168213 229.536880,50.054520 
	C220.125900,49.887283 210.716278,49.239712 201.310013,49.311886 
	C188.495285,49.410217 175.686005,50.141502 162.870789,50.290012 
	C158.296783,50.343021 153.709076,49.087620 149.133102,49.123592 
	C135.635361,49.229713 122.141579,49.848961 108.643867,49.949936 
	C97.101273,50.036289 85.555367,49.686386 74.010986,49.524849 
	C68.078445,49.441837 62.144955,49.230530 56.213821,49.285515 
	C44.721756,49.392040 33.231361,49.667572 21.739668,49.830509 
	C14.827034,49.928520 7.913261,49.946213 1.000000,50.000000 
z"/>
<path fill="#58CBA0" opacity="1.000000" stroke="none" 
	d="
M1.000000,50.468651 
	C7.913261,49.946213 14.827034,49.928520 21.739668,49.830509 
	C33.231361,49.667572 44.721756,49.392040 56.213821,49.285515 
	C62.144955,49.230530 68.078445,49.441837 74.010986,49.524849 
	C85.555367,49.686386 97.101273,50.036289 108.643867,49.949936 
	C122.141579,49.848961 135.635361,49.229713 149.133102,49.123592 
	C153.709076,49.087620 158.296783,50.343021 162.870789,50.290012 
	C175.686005,50.141502 188.495285,49.410217 201.310013,49.311886 
	C210.716278,49.239712 220.125900,49.887283 229.536880,50.054520 
	C235.934647,50.168213 242.338181,49.921890 248.737640,49.985924 
	C259.433807,50.092941 270.128632,50.431782 280.824371,50.448418 
	C286.218567,50.456806 291.614746,49.734798 297.007843,49.762360 
	C306.883789,49.812828 316.757660,50.195679 326.633331,50.394638 
	C330.095459,50.464390 333.560608,50.429146 337.023834,50.393337 
	C349.529053,50.264046 362.034607,50.152714 374.538940,49.961700 
	C388.576477,49.747269 402.613251,49.243404 416.649567,49.270145 
	C425.708679,49.287399 434.764526,50.082233 443.825745,50.425182 
	C447.284515,50.556087 450.754333,50.409225 454.218903,50.370457 
	C465.404877,50.245296 476.590454,50.073875 487.776733,49.993717 
	C495.885834,49.935604 503.995728,49.994034 512.552612,50.000244 
	C513.000000,58.687565 513.000000,67.375130 512.596191,76.519783 
	C508.559265,76.983589 504.923859,77.076935 501.293518,76.980316 
	C491.504913,76.719795 481.717957,76.115990 471.931366,76.136574 
	C460.176819,76.161285 448.392303,76.268860 436.679108,77.132393 
	C427.029327,77.843811 417.718353,74.247177 407.778168,76.653000 
	C400.467621,78.422371 392.383179,76.993530 384.643616,76.991447 
	C370.049683,76.987526 355.455627,77.014725 340.861908,76.955299 
	C338.057861,76.943871 335.248718,76.366249 332.453156,76.445641 
	C325.644379,76.638985 318.842896,77.325752 312.037201,77.343727 
	C296.698914,77.384262 281.358521,77.223709 266.021576,76.980545 
	C256.731384,76.833244 247.445480,76.109657 238.158737,76.130554 
	C226.726196,76.156281 215.296295,76.862778 203.862564,76.959854 
	C185.877579,77.112541 167.890366,77.003540 149.904099,77.002403 
	C135.808365,77.001511 121.712440,77.032372 107.617020,76.963562 
	C104.644402,76.949051 101.666092,76.309349 98.703491,76.397499 
	C91.914085,76.599541 85.133591,77.358337 78.347992,77.377846 
	C63.518883,77.420502 48.687393,77.227646 33.859692,76.969398 
	C22.904156,76.778587 11.953069,76.332405 1.000000,76.000000 
	C1.000000,67.645767 1.000000,59.291534 1.000000,50.468651 
z"/>
<path fill="#3A99AA" opacity="1.000000" stroke="none" 
	d="
M1.000000,424.000000 
	C1.000000,421.629425 1.000000,419.258881 1.456305,416.444519 
	C8.872795,416.194641 15.832092,416.492737 22.793423,416.551941 
	C29.248146,416.606873 35.705742,416.300201 42.160820,416.342743 
	C52.602959,416.411530 63.044121,416.757935 73.485603,416.753845 
	C81.075752,416.750854 88.664871,416.326233 96.256172,416.177856 
	C100.376587,416.097321 104.501686,416.148254 108.622765,416.232880 
	C117.709885,416.419403 126.795532,416.676392 135.882355,416.878784 
	C138.351181,416.933777 140.853485,417.151642 143.285873,416.851868 
	C149.620163,416.071289 156.724777,417.894958 161.833862,411.955322 
	C164.413376,414.125488 166.738419,416.104523 169.046295,418.051453 
	C169.029144,418.019348 168.969666,417.977264 168.646118,418.206726 
	C169.537354,419.952606 170.752121,421.468994 172.258972,423.119629 
	C173.368622,423.496429 174.186188,423.739075 175.378189,424.021057 
	C180.407761,427.147308 185.633926,427.008148 190.940811,427.060059 
	C202.146072,427.169586 213.347595,427.634827 224.552109,427.890533 
	C225.728470,427.917358 226.914536,427.518768 228.594025,427.232758 
	C224.971100,424.876587 221.986084,422.935303 219.400269,420.980164 
	C227.055145,421.972778 234.362946,424.044495 241.552200,423.692871 
	C249.087616,423.324341 256.509308,420.630402 264.173340,419.076843 
	C264.911774,418.842896 265.457520,418.484894 266.152100,418.015991 
	C266.300903,417.905060 266.672119,417.906647 266.901611,417.819458 
	C267.429932,417.595001 267.708252,417.424316 268.168457,417.089905 
	C268.370819,416.959564 268.850372,416.916473 269.083923,417.202606 
	C270.640198,418.620514 271.894257,420.628510 273.297028,420.738434 
	C281.030212,421.344269 288.799652,421.723022 296.556763,421.724579 
	C305.139099,421.726318 313.720490,421.194458 322.304474,420.986511 
	C325.132538,420.917999 327.802612,420.891327 328.364746,417.143036 
	C331.816010,418.240021 334.903778,419.290466 338.209320,420.626465 
	C339.573212,421.106750 340.719269,421.301483 342.242859,421.678345 
	C353.108795,422.514404 363.272827,421.134155 373.014465,417.411621 
	C373.035889,421.120331 375.063232,422.144836 377.942780,421.957764 
	C381.082001,421.753815 384.207031,421.142792 387.342682,421.108063 
	C397.544739,420.995026 407.749725,421.145416 417.951660,421.028229 
	C422.882416,420.971588 427.811707,420.283630 432.736847,420.335907 
	C444.639801,420.462158 456.538727,421.009674 468.441498,421.102203 
	C483.293182,421.217682 498.147064,421.047058 513.000000,421.000000 
	C513.000000,422.388885 513.000000,423.777802 512.797852,425.942505 
	C512.393188,432.148010 512.190613,437.577667 511.546631,443.005310 
	C504.161560,443.258118 497.217499,443.733032 490.274628,443.715820 
	C480.011658,443.690399 469.749054,443.121002 459.487213,443.146667 
	C450.236572,443.169769 440.985931,443.953674 431.737549,443.911102 
	C419.271912,443.853729 406.809998,443.204590 394.343445,443.045135 
	C386.746826,442.947968 379.144653,443.407990 371.544830,443.412720 
	C361.794250,443.418793 352.042267,443.067749 342.293243,443.150940 
	C332.873474,443.231262 323.457489,443.867584 314.038544,443.901733 
	C299.091339,443.955933 284.142975,443.720764 269.195251,443.591339 
	C260.796692,443.518646 252.398544,443.392883 243.999939,443.327301 
	C237.390488,443.275726 230.779510,443.194489 224.171173,443.279510 
	C214.749863,443.400696 205.329208,443.866211 195.910324,443.814484 
	C182.513306,443.740906 169.119034,443.251923 155.721786,443.101471 
	C149.787140,443.034790 143.847763,443.494171 137.911041,443.481323 
	C127.992661,443.459808 118.073593,443.096100 108.156837,443.165558 
	C98.738647,443.231476 89.321915,443.921997 79.906609,443.879456 
	C67.291885,443.822449 54.680443,443.195648 42.065037,443.069794 
	C35.804451,443.007324 29.540062,443.596375 23.273945,443.747192 
	C16.188395,443.917725 9.098971,443.927277 2.008861,443.538025 
	C1.670993,436.712860 1.335496,430.356415 1.000000,424.000000 
z"/>
<path fill="#52C1A2" opacity="1.000000" stroke="none" 
	d="
M1.000000,163.000000 
	C1.000000,157.645065 1.000000,152.290146 1.061219,146.347473 
	C1.205186,145.491989 1.164373,145.238739 1.000000,145.000000 
	C1.000000,137.979050 1.000000,130.958099 1.250442,123.468445 
	C1.667842,122.998497 1.834799,122.997261 2.457912,122.996811 
	C15.854271,122.755730 28.796377,122.247093 41.734196,122.339424 
	C57.966789,122.455261 74.195473,123.080719 90.426689,123.449692 
	C95.543304,123.566002 100.665634,123.704124 105.780090,123.592033 
	C123.360550,123.206741 140.936996,122.452003 158.518188,122.339790 
	C175.255585,122.232964 191.997757,122.713776 208.736115,123.028107 
	C213.039825,123.108940 217.343689,123.843407 221.636032,123.750130 
	C239.545807,123.360916 257.448730,122.498535 275.358948,122.335945 
	C291.096100,122.193085 306.840729,122.699783 322.579651,123.032051 
	C327.218048,123.129974 331.878174,124.098343 336.476379,123.817268 
	C347.044647,123.171265 357.580994,122.002319 367.965881,121.356873 
	C364.221283,123.924889 360.664642,126.220108 357.056854,128.431946 
	C338.691467,139.691345 319.642975,149.516937 298.838562,155.670502 
	C297.156738,155.146423 295.619934,154.668549 294.117859,154.760025 
	C289.149109,155.062668 284.196930,155.873688 279.230957,155.941040 
	C266.302063,156.116364 253.369217,156.000000 240.437943,156.000000 
	C224.182404,156.000000 207.926880,156.000000 191.671341,156.000000 
	C168.558090,156.000000 145.444824,156.000000 122.331573,156.000000 
	C105.575356,156.000000 88.819130,155.999954 72.062912,156.000000 
	C51.782738,156.000076 31.499887,156.181625 11.224127,155.882507 
	C5.620859,155.799835 1.398575,156.272568 1.000000,163.000000 
z"/>
<path fill="#5CD29E" opacity="1.000000" stroke="none" 
	d="
M511.985138,22.998398 
	C505.846527,22.667824 499.705048,22.013275 493.569794,22.066936 
	C474.551819,22.233269 455.537048,22.824982 436.519257,22.934523 
	C426.928894,22.989759 417.334412,22.098167 407.742188,22.105692 
	C395.155151,22.115566 382.568390,22.820950 369.981720,22.813717 
	C348.271667,22.801241 326.562103,22.407953 304.851715,22.305593 
	C297.095428,22.269024 289.337219,22.742165 281.580109,22.735302 
	C276.777222,22.731052 271.971924,21.994913 267.172577,22.046247 
	C245.938049,22.273378 224.706131,22.813181 203.471527,22.935360 
	C193.548004,22.992455 183.620392,22.097923 173.694870,22.103050 
	C161.108124,22.109550 148.522812,22.696444 135.934677,22.839352 
	C124.185593,22.972731 112.433609,22.840961 100.682922,22.851551 
	C97.366211,22.854540 94.046944,23.058203 90.733391,22.979368 
	C79.307007,22.707520 67.882919,22.106388 56.457417,22.092875 
	C43.703667,22.077789 30.950243,22.674946 18.194782,22.784161 
	C13.073890,22.828009 7.947950,22.282251 2.165775,22.000889 
	C1.338162,21.997948 1.169081,21.998974 1.000000,22.000000 
	C1.000000,15.645601 1.000000,9.291203 1.180584,2.315827 
	C1.600504,1.487497 1.813448,1.255880 2.000000,1.000000 
	C171.687561,1.000000 341.375122,1.000000 511.681183,1.182820 
	C512.518555,1.593134 512.752014,1.804587 513.000000,2.000000 
	C513.000000,8.687645 513.000000,15.375290 512.746277,22.529926 
	C512.323364,22.997412 512.154236,22.997904 511.985138,22.998398 
z"/>
<path fill="#56C7A1" opacity="1.000000" stroke="none" 
	d="
M1.000000,76.467941 
	C11.953069,76.332405 22.904156,76.778587 33.859692,76.969398 
	C48.687393,77.227646 63.518883,77.420502 78.347992,77.377846 
	C85.133591,77.358337 91.914085,76.599541 98.703491,76.397499 
	C101.666092,76.309349 104.644402,76.949051 107.617020,76.963562 
	C121.712440,77.032372 135.808365,77.001511 149.904099,77.002403 
	C167.890366,77.003540 185.877579,77.112541 203.862564,76.959854 
	C215.296295,76.862778 226.726196,76.156281 238.158737,76.130554 
	C247.445480,76.109657 256.731384,76.833244 266.021576,76.980545 
	C281.358521,77.223709 296.698914,77.384262 312.037201,77.343727 
	C318.842896,77.325752 325.644379,76.638985 332.453156,76.445641 
	C335.248718,76.366249 338.057861,76.943871 340.861908,76.955299 
	C355.455627,77.014725 370.049683,76.987526 384.643616,76.991447 
	C392.383179,76.993530 400.467621,78.422371 407.778168,76.653000 
	C417.718353,74.247177 427.029327,77.843811 436.679108,77.132393 
	C448.392303,76.268860 460.176819,76.161285 471.931366,76.136574 
	C481.717957,76.115990 491.504913,76.719795 501.293518,76.980316 
	C504.923859,77.076935 508.559265,76.983589 512.596191,76.988434 
	C513.000000,84.354256 513.000000,91.708504 512.805664,99.202225 
	C512.211304,94.651596 510.700500,92.425316 505.077576,93.648262 
	C499.755066,94.805862 494.046448,94.447021 488.516174,94.335098 
	C477.835724,94.118958 467.160675,93.285141 456.484467,93.304817 
	C444.924316,93.326118 433.366547,94.166969 421.804504,94.264206 
	C420.320984,94.276688 418.576508,92.157097 417.415222,90.665298 
	C416.727753,89.782249 416.947296,88.193161 416.834778,86.561127 
	C417.655029,84.132942 418.399536,82.065178 419.338837,79.924042 
	C419.720093,79.525063 419.906555,79.199455 420.093018,78.873856 
	C419.710907,78.953949 419.328766,79.034042 418.599030,79.093918 
	C416.268768,81.382835 414.441956,83.851974 412.270325,85.967064 
	C408.015839,90.110764 403.569183,94.057121 398.795532,98.078598 
	C395.241364,98.096176 392.093567,98.106903 388.946136,98.146622 
	C371.580902,98.365723 354.216125,98.730774 336.850525,98.771484 
	C323.090912,98.803734 309.330231,98.284714 295.570404,98.302208 
	C283.973389,98.316956 272.376434,98.964539 260.780304,98.939613 
	C249.347397,98.915039 237.913986,98.117218 226.483627,98.179230 
	C216.087234,98.235634 205.696869,99.292702 195.299866,99.369125 
	C179.235413,99.487198 163.166626,99.212532 147.101440,98.980484 
	C130.041382,98.734077 112.984322,98.198280 95.924057,98.092628 
	C89.821007,98.054825 83.708702,99.318359 77.607178,99.263214 
	C64.518684,99.144928 51.436699,98.432259 38.347839,98.194214 
	C26.238253,97.973984 14.123184,98.055161 2.000295,97.649712 
	C1.660040,96.197220 1.330020,95.098610 1.000000,94.000000 
	C1.000000,88.311958 1.000000,82.623917 1.000000,76.467941 
z"/>
<path fill="#54C5A1" opacity="1.000000" stroke="none" 
	d="
M2.010530,98.003601 
	C14.123184,98.055161 26.238253,97.973984 38.347839,98.194214 
	C51.436699,98.432259 64.518684,99.144928 77.607178,99.263214 
	C83.708702,99.318359 89.821007,98.054825 95.924057,98.092628 
	C112.984322,98.198280 130.041382,98.734077 147.101440,98.980484 
	C163.166626,99.212532 179.235413,99.487198 195.299866,99.369125 
	C205.696869,99.292702 216.087234,98.235634 226.483627,98.179230 
	C237.913986,98.117218 249.347397,98.915039 260.780304,98.939613 
	C272.376434,98.964539 283.973389,98.316956 295.570404,98.302208 
	C309.330231,98.284714 323.090912,98.803734 336.850525,98.771484 
	C354.216125,98.730774 371.580902,98.365723 388.946136,98.146622 
	C392.093567,98.106903 395.241364,98.096176 398.632538,98.380501 
	C396.280640,100.954704 393.857697,103.465225 391.056549,105.439064 
	C383.500549,110.763435 375.783447,115.859154 368.130280,121.045624 
	C357.580994,122.002319 347.044647,123.171265 336.476379,123.817268 
	C331.878174,124.098343 327.218048,123.129974 322.579651,123.032051 
	C306.840729,122.699783 291.096100,122.193085 275.358948,122.335945 
	C257.448730,122.498535 239.545807,123.360916 221.636032,123.750130 
	C217.343689,123.843407 213.039825,123.108940 208.736115,123.028107 
	C191.997757,122.713776 175.255585,122.232964 158.518188,122.339790 
	C140.936996,122.452003 123.360550,123.206741 105.780090,123.592033 
	C100.665634,123.704124 95.543304,123.566002 90.426689,123.449692 
	C74.195473,123.080719 57.966789,122.455261 41.734196,122.339424 
	C28.796377,122.247093 15.854271,122.755730 2.456684,122.601761 
	C1.666200,120.470612 1.333100,118.735306 1.000000,117.000000 
	C1.000000,111.977905 1.000000,106.955818 1.184047,101.202866 
	C1.582239,99.649208 1.796385,98.826401 2.010530,98.003601 
z"/>
<path fill="#4FBCA3" opacity="1.000000" stroke="none" 
	d="
M1.000000,163.468277 
	C1.398575,156.272568 5.620859,155.799835 11.224127,155.882507 
	C31.499887,156.181625 51.782738,156.000076 72.062912,156.000000 
	C88.819130,155.999954 105.575356,156.000000 122.331573,156.000000 
	C145.444824,156.000000 168.558090,156.000000 191.671341,156.000000 
	C207.926880,156.000000 224.182404,156.000000 240.437943,156.000000 
	C253.369217,156.000000 266.302063,156.116364 279.230957,155.941040 
	C284.196930,155.873688 289.149109,155.062668 294.117859,154.760025 
	C295.619934,154.668549 297.156738,155.146423 298.497620,155.824829 
	C263.543335,168.454803 228.769058,180.623459 193.831177,192.514191 
	C192.120132,192.156906 190.548233,191.863693 189.029800,192.037491 
	C184.085709,192.603409 179.167389,193.834732 174.227646,193.897125 
	C166.467026,193.995117 158.694519,193.033173 150.931564,193.094025 
	C139.680481,193.182220 128.434937,193.836914 117.184219,194.148605 
	C105.770241,194.464874 94.346733,195.012070 82.938507,194.814865 
	C68.888969,194.572006 54.852089,193.635193 40.806976,193.066437 
	C37.818203,192.945404 34.811653,193.010513 31.823435,193.174576 
	C21.546528,193.738846 11.274122,194.385040 1.000000,195.000000 
	C1.000000,193.611115 1.000000,192.222214 1.192899,190.089111 
	C1.257198,186.896606 1.128599,184.448303 1.000000,182.000000 
	C1.000000,175.978851 1.000000,169.957703 1.000000,163.468277 
z"/>
<path fill="#48B0A5" opacity="1.000000" stroke="none" 
	d="
M513.000000,252.000000 
	C513.000000,254.700638 513.000000,257.401276 512.798950,260.908661 
	C512.395752,266.144012 512.193542,270.572632 511.598999,274.990784 
	C505.601196,274.726959 499.995972,274.275482 494.390137,274.267365 
	C486.319733,274.255676 478.248993,274.696686 470.178162,274.705200 
	C460.955048,274.714905 451.731842,274.378113 442.508270,274.353241 
	C436.401520,274.336761 430.294647,274.666840 424.186676,274.725830 
	C418.576294,274.780029 412.861389,275.335693 407.379913,274.475739 
	C400.903351,273.459656 393.991516,275.790222 387.911224,271.614136 
	C378.302460,263.578522 367.813324,259.159882 355.292786,262.681610 
	C341.810822,266.473724 334.578918,276.155090 330.485535,289.146851 
	C326.123779,292.427368 321.920959,293.261108 316.521637,292.832428 
	C311.509003,292.434387 305.679962,290.108612 300.554779,294.092590 
	C297.866089,291.400482 295.510071,288.835327 293.076355,286.346130 
	C281.105133,274.102203 266.865784,265.685913 249.732300,264.102509 
	C239.647232,263.170502 229.339432,264.648468 218.935226,265.162964 
	C218.482132,265.454559 218.243256,265.647461 217.652740,265.977112 
	C212.206741,268.102570 207.129974,270.113129 201.711533,271.905701 
	C194.013824,271.602936 186.657303,271.548004 179.301971,271.422058 
	C175.050079,271.349274 170.800110,271.162750 166.549347,271.025818 
	C164.924164,270.973450 163.273224,271.079987 161.679428,270.827454 
	C158.403976,270.308533 155.159149,269.596313 151.981995,268.630676 
	C154.063385,265.527496 156.064499,262.757294 158.232269,259.822815 
	C158.611343,259.428894 158.802673,259.182831 159.129028,258.628723 
	C162.204559,255.231247 165.123993,252.125443 168.359711,249.174927 
	C174.318665,249.820343 179.964462,250.277985 185.601822,250.822632 
	C187.075409,250.964996 188.522827,251.377975 189.721222,251.900772 
	C185.124649,255.212036 180.789139,258.289215 176.189209,261.500122 
	C175.325684,262.073761 174.726562,262.513672 173.891174,263.116272 
	C173.585434,264.026733 173.515976,264.774475 173.446518,265.522278 
	C174.297531,264.725220 175.148560,263.928162 176.233154,263.018738 
	C176.696625,262.661316 176.926529,262.416260 177.522278,262.106628 
	C182.213577,260.127228 186.471573,258.038483 190.877121,256.330322 
	C203.826569,251.309433 217.195236,248.046188 231.111816,247.667908 
	C231.838165,249.232910 232.417450,251.252731 233.314941,251.405716 
	C237.091248,252.049408 240.965881,252.413467 244.798538,252.368576 
	C253.156876,252.270676 261.510651,251.665558 269.867950,251.626312 
	C281.094574,251.573593 292.323456,252.014236 303.550110,251.963821 
	C320.476837,251.887817 337.402374,251.557800 354.328735,251.362946 
	C359.556549,251.302750 364.785736,251.288254 370.013702,251.327621 
	C381.717621,251.415756 393.421112,251.634827 405.124847,251.641159 
	C415.045685,251.646515 424.967407,251.291565 434.887329,251.346268 
	C445.302429,251.403702 455.715393,251.899109 466.130157,251.933411 
	C472.841339,251.955490 479.554840,251.276764 486.265961,251.299301 
	C494.843842,251.328110 503.420410,251.746872 512.248169,251.998779 
	C512.498779,251.999985 512.749390,252.000000 512.749390,252.000000 
	C512.749390,252.000000 513.000000,252.000000 513.000000,252.000000 
z"/>
<path fill="#3D9DA9" opacity="1.000000" stroke="none" 
	d="
M161.579391,411.764252 
	C156.724777,417.894958 149.620163,416.071289 143.285873,416.851868 
	C140.853485,417.151642 138.351181,416.933777 135.882355,416.878784 
	C126.795532,416.676392 117.709885,416.419403 108.622765,416.232880 
	C104.501686,416.148254 100.376587,416.097321 96.256172,416.177856 
	C88.664871,416.326233 81.075752,416.750854 73.485603,416.753845 
	C63.044121,416.757935 52.602959,416.411530 42.160820,416.342743 
	C35.705742,416.300201 29.248146,416.606873 22.793423,416.551941 
	C15.832092,416.492737 8.872795,416.194641 1.456305,416.000366 
	C1.000000,415.250000 1.000000,414.500000 1.199570,413.013916 
	C1.599854,401.851471 1.800568,391.425110 2.469858,380.999115 
	C18.510878,381.152710 34.083069,381.374878 49.655861,381.432007 
	C58.243820,381.463501 66.832558,381.195618 75.421379,381.103424 
	C84.362244,381.007446 93.303551,380.925079 102.244827,380.901917 
	C111.344421,380.878357 120.448044,381.074768 129.540451,380.827515 
	C131.202530,380.782288 132.819321,379.071625 134.723389,378.380676 
	C136.066513,380.292206 136.995895,382.073853 138.244064,383.593689 
	C145.982712,393.016571 153.792923,402.380646 161.579391,411.764252 
z"/>
<path fill="#4CB6A4" opacity="1.000000" stroke="none" 
	d="
M1.000000,195.468658 
	C11.274122,194.385040 21.546528,193.738846 31.823435,193.174576 
	C34.811653,193.010513 37.818203,192.945404 40.806976,193.066437 
	C54.852089,193.635193 68.888969,194.572006 82.938507,194.814865 
	C94.346733,195.012070 105.770241,194.464874 117.184219,194.148605 
	C128.434937,193.836914 139.680481,193.182220 150.931564,193.094025 
	C158.694519,193.033173 166.467026,193.995117 174.227646,193.897125 
	C179.167389,193.834732 184.085709,192.603409 189.029800,192.037491 
	C190.548233,191.863693 192.120132,192.156906 193.505432,192.705231 
	C169.646332,202.485870 146.690262,213.123505 126.836700,230.076569 
	C123.576492,229.985474 120.609360,230.177429 119.879875,226.152786 
	C120.991104,222.409012 122.722069,218.995117 122.797516,215.545013 
	C122.946617,208.726334 117.009003,202.688675 109.842323,201.324875 
	C103.303207,200.080490 96.692642,203.693314 93.902328,209.967667 
	C91.107292,216.252640 92.394279,221.902512 96.316498,227.593262 
	C94.180122,229.015182 92.171257,230.845291 90.148384,230.860901 
	C77.102936,230.961594 64.054619,230.577469 51.006790,230.546860 
	C46.304279,230.535828 41.599564,231.281479 36.897648,231.261444 
	C33.976307,231.249008 31.058481,230.078796 28.138809,230.077576 
	C22.196781,230.075119 16.255066,230.524673 10.312221,230.763000 
	C7.545922,230.873947 4.777286,230.926605 2.005507,230.628265 
	C1.667537,228.833908 1.333768,227.416946 1.000000,226.000000 
	C1.000000,215.979111 1.000000,205.958206 1.000000,195.468658 
z"/>
<path fill="#43A8A7" opacity="1.000000" stroke="none" 
	d="
M513.000000,335.000000 
	C513.000000,337.700623 513.000000,340.401276 512.822693,343.772827 
	C512.427002,344.964142 512.208618,345.484467 511.522186,346.003906 
	C493.102905,346.001984 475.151672,346.000763 457.200439,346.000092 
	C445.251617,345.999634 433.300232,345.853729 421.355011,346.060913 
	C415.255310,346.166656 409.414124,346.051727 404.875305,341.196411 
	C404.899628,341.172546 404.924866,341.235809 404.814728,341.022766 
	C404.550568,340.529236 404.369293,340.267609 404.086487,339.737000 
	C403.978210,339.054840 403.944244,338.660583 403.800537,338.048706 
	C403.535736,337.544159 403.353912,337.275330 403.026306,336.677063 
	C399.052399,327.198364 393.747406,318.860352 385.943390,312.856995 
	C379.762909,308.102570 372.406128,304.884705 365.612549,300.914581 
	C363.963745,299.951050 362.475891,298.712158 360.914032,297.599884 
	C361.166901,297.025726 361.419769,296.451569 361.672638,295.877411 
	C363.559937,296.263184 365.518036,296.447632 367.318359,297.080780 
	C370.207794,298.096863 372.992798,299.409912 375.985046,300.928528 
	C378.811188,303.088165 381.295990,306.065430 384.173523,306.512024 
	C390.641785,307.515869 397.303009,307.358643 403.889374,307.492340 
	C408.678009,307.589569 413.473053,307.317383 418.264313,307.349823 
	C426.231323,307.403778 434.197876,307.682251 442.164093,307.661407 
	C452.742615,307.633728 463.320374,307.379791 473.898956,307.277283 
	C486.599030,307.154236 499.299622,307.088226 512.001831,307.466492 
	C512.009827,316.614746 512.015930,325.294067 512.167847,334.160400 
	C512.523987,334.584229 512.752808,334.801758 513.000000,335.000000 
z"/>
<path fill="#46ACA6" opacity="1.000000" stroke="none" 
	d="
M512.000000,306.997559 
	C499.299622,307.088226 486.599030,307.154236 473.898956,307.277283 
	C463.320374,307.379791 452.742615,307.633728 442.164093,307.661407 
	C434.197876,307.682251 426.231323,307.403778 418.264313,307.349823 
	C413.473053,307.317383 408.678009,307.589569 403.889374,307.492340 
	C397.303009,307.358643 390.641785,307.515869 384.173523,306.512024 
	C381.295990,306.065430 378.811188,303.088165 376.076630,300.589844 
	C379.974762,290.604675 383.944397,281.289124 387.914062,271.973602 
	C393.991516,275.790222 400.903351,273.459656 407.379913,274.475739 
	C412.861389,275.335693 418.576294,274.780029 424.186676,274.725830 
	C430.294647,274.666840 436.401520,274.336761 442.508270,274.353241 
	C451.731842,274.378113 460.955048,274.714905 470.178162,274.705200 
	C478.248993,274.696686 486.319733,274.255676 494.390137,274.267365 
	C499.995972,274.275482 505.601196,274.726959 511.601227,275.441406 
	C512.330505,279.268311 512.665222,282.634155 513.000000,286.000000 
	C513.000000,291.688049 513.000000,297.376068 512.819458,303.797913 
	C512.425903,305.353668 512.212952,306.175598 512.000000,306.997559 
z"/>
<path fill="#40A2A8" opacity="1.000000" stroke="none" 
	d="
M404.851013,341.220306 
	C409.414124,346.051727 415.255310,346.166656 421.355011,346.060913 
	C433.300232,345.853729 445.251617,345.999634 457.200439,346.000092 
	C475.151672,346.000763 493.102905,346.001984 511.524017,346.471924 
	C512.329224,353.960602 512.664612,360.980286 513.000000,368.000000 
	C513.000000,370.041656 513.000000,372.083344 512.800903,374.919434 
	C512.399902,379.808868 512.198120,383.903809 511.566162,387.994720 
	C507.342590,387.680603 503.540710,387.035522 499.757416,387.130463 
	C491.958649,387.326233 484.062866,389.923920 476.508087,385.771973 
	C475.977966,385.480652 475.157104,385.428589 474.560699,385.591675 
	C467.116089,387.627258 459.480316,388.817017 451.920532,387.330658 
	C446.989136,386.361084 442.433655,384.450195 437.646423,387.651154 
	C437.033905,388.060730 435.519012,386.960419 434.387390,386.789459 
	C432.443115,386.495789 430.475250,386.307190 428.510559,386.208130 
	C420.022736,385.780029 411.532501,385.400421 403.065430,384.629089 
	C408.765228,370.118622 408.377594,355.733765 404.851013,341.220306 
z"/>
<path fill="#3C9CA9" opacity="1.000000" stroke="none" 
	d="
M403.043121,385.003174 
	C411.532501,385.400421 420.022736,385.780029 428.510559,386.208130 
	C430.475250,386.307190 432.443115,386.495789 434.387390,386.789459 
	C435.519012,386.960419 437.033905,388.060730 437.646423,387.651154 
	C442.433655,384.450195 446.989136,386.361084 451.920532,387.330658 
	C459.480316,388.817017 467.116089,387.627258 474.560699,385.591675 
	C475.157104,385.428589 475.977966,385.480652 476.508087,385.771973 
	C484.062866,389.923920 491.958649,387.326233 499.757416,387.130463 
	C503.540710,387.035522 507.342590,387.680603 511.568207,388.463440 
	C512.333557,395.957458 512.666748,402.978729 513.000000,410.000000 
	C513.000000,413.361298 513.000000,416.722565 513.000000,420.541931 
	C498.147064,421.047058 483.293182,421.217682 468.441498,421.102203 
	C456.538727,421.009674 444.639801,420.462158 432.736847,420.335907 
	C427.811707,420.283630 422.882416,420.971588 417.951660,421.028229 
	C407.749725,421.145416 397.544739,420.995026 387.342682,421.108063 
	C384.207031,421.142792 381.082001,421.753815 377.942780,421.957764 
	C375.063232,422.144836 373.035889,421.120331 373.264893,417.174744 
	C387.146759,409.586914 396.819855,398.910736 403.043121,385.003174 
z"/>
<path fill="#46ACA6" opacity="1.000000" stroke="none" 
	d="
M1.000000,303.000000 
	C1.000000,297.645081 1.000000,292.290131 1.201784,286.107727 
	C1.604988,279.187653 1.806408,273.095032 2.422847,267.015411 
	C11.303715,267.216888 19.735796,269.578857 28.252649,267.343719 
	C29.297913,267.069458 30.536415,267.637573 31.684599,267.632721 
	C41.218391,267.592499 50.751945,267.496582 60.285728,267.450409 
	C62.088348,267.441681 63.891327,267.628174 65.694733,267.640991 
	C77.867226,267.727417 90.133865,269.080688 101.979767,265.384064 
	C97.362816,278.899902 97.382317,292.333832 99.030785,306.095398 
	C96.664337,307.520325 94.665764,309.681213 92.553764,309.798431 
	C85.129730,310.210510 77.665154,310.006531 70.218834,309.874664 
	C60.504978,309.702698 50.792809,309.134247 41.081818,309.176361 
	C28.057165,309.232788 15.034340,309.710144 2.007899,309.594788 
	C1.670045,307.121826 1.335022,305.060913 1.000000,303.000000 
z"/>
<path fill="#49B2A5" opacity="1.000000" stroke="none" 
	d="
M102.003990,265.002258 
	C90.133865,269.080688 77.867226,267.727417 65.694733,267.640991 
	C63.891327,267.628174 62.088348,267.441681 60.285728,267.450409 
	C50.751945,267.496582 41.218391,267.592499 31.684599,267.632721 
	C30.536415,267.637573 29.297913,267.069458 28.252649,267.343719 
	C19.735796,269.578857 11.303715,267.216888 2.419842,266.619629 
	C1.667879,264.473907 1.333940,262.736969 1.000001,261.000000 
	C1.000000,257.307098 1.000000,253.614182 1.202750,249.101349 
	C1.606903,242.522858 1.808306,236.764267 2.009709,231.005676 
	C4.777286,230.926605 7.545922,230.873947 10.312221,230.763000 
	C16.255066,230.524673 22.196781,230.075119 28.138809,230.077576 
	C31.058481,230.078796 33.976307,231.249008 36.897648,231.261444 
	C41.599564,231.281479 46.304279,230.535828 51.006790,230.546860 
	C64.054619,230.577469 77.102936,230.961594 90.148384,230.860901 
	C92.171257,230.845291 94.180122,229.015182 96.614761,227.795746 
	C105.174042,233.768509 111.258507,233.473602 119.751106,226.466293 
	C120.609360,230.177429 123.576492,229.985474 126.657043,230.366455 
	C115.990631,240.215652 107.579018,251.579788 102.003990,265.002258 
z"/>
<path fill="#43A7A7" opacity="1.000000" stroke="none" 
	d="
M2.010730,310.006805 
	C15.034340,309.710144 28.057165,309.232788 41.081818,309.176361 
	C50.792809,309.134247 60.504978,309.702698 70.218834,309.874664 
	C77.665154,310.006531 85.129730,310.210510 92.553764,309.798431 
	C94.665764,309.681213 96.664337,307.520325 99.210022,306.426697 
	C102.978844,316.399872 106.165253,326.273376 109.570999,336.070587 
	C110.860367,339.779663 112.655739,343.312897 113.788849,346.975891 
	C104.799927,347.407013 96.246101,347.936859 87.684563,348.137421 
	C72.364403,348.496368 57.040279,348.725006 41.716515,348.879700 
	C28.481525,349.013275 15.244735,348.968414 2.004103,348.625427 
	C1.666311,346.832245 1.333155,345.416138 1.000000,344.000000 
	C1.000000,339.975464 1.000000,335.950897 1.202794,331.103577 
	C1.607301,323.522797 1.809015,316.764801 2.010730,310.006805 
z"/>
<path fill="#40A2A8" opacity="1.000000" stroke="none" 
	d="
M2.008739,349.002441 
	C15.244735,348.968414 28.481525,349.013275 41.716515,348.879700 
	C57.040279,348.725006 72.364403,348.496368 87.684563,348.137421 
	C96.246101,347.936859 104.799927,347.407013 114.082657,347.150696 
	C121.357735,357.560516 127.907372,367.845123 134.457016,378.129761 
	C132.819321,379.071625 131.202530,380.782288 129.540451,380.827515 
	C120.448044,381.074768 111.344421,380.878357 102.244827,380.901917 
	C93.303551,380.925079 84.362244,381.007446 75.421379,381.103424 
	C66.832558,381.195618 58.243820,381.463501 49.655861,381.432007 
	C34.083069,381.374878 18.510878,381.152710 2.465366,380.622681 
	C1.661533,378.830597 1.330768,377.415283 1.000002,376.000000 
	C1.000000,373.958344 1.000000,371.916656 1.201180,369.077179 
	C1.604487,361.853729 1.806614,355.428070 2.008739,349.002441 
z"/>
<path fill="#4CB7A4" opacity="1.000000" stroke="none" 
	d="
M513.000000,192.000000 
	C513.000000,200.020905 513.000000,208.041809 512.564880,216.531906 
	C502.884216,217.333466 493.640686,217.839996 484.392548,217.946945 
	C475.932617,218.044754 467.467102,217.583557 459.005280,217.624329 
	C455.217377,217.642578 451.422333,218.673981 447.648010,218.575653 
	C433.859039,218.216370 420.080475,217.266800 406.292145,217.132004 
	C394.060730,217.012421 381.822968,217.753494 369.585449,217.971802 
	C362.369415,218.100540 362.367188,217.975464 364.179565,210.709076 
	C372.477936,202.422241 380.591492,194.412643 388.759979,186.845093 
	C388.791199,190.549179 390.333130,192.000519 393.670074,192.128326 
	C407.375275,192.653198 421.074341,193.338104 434.776489,193.945053 
	C435.432312,193.974106 436.094696,193.790344 436.756561,193.758072 
	C442.164337,193.494400 447.571991,193.072418 452.981140,193.049744 
	C456.440613,193.035248 459.913635,193.975266 463.361603,193.869492 
	C479.911255,193.361755 496.454498,192.643478 513.000000,192.000000 
z"/>
<path fill="#51BFA2" opacity="1.000000" stroke="none" 
	d="
M513.000000,140.000000 
	C513.000000,141.388992 513.000000,142.778000 512.798340,144.943558 
	C512.399475,152.143906 512.202148,158.567703 511.568359,164.992065 
	C498.452179,164.661758 485.773132,164.105530 473.092712,164.071548 
	C463.014160,164.044571 452.933685,164.921051 442.854492,164.911484 
	C432.259308,164.901428 421.666290,164.225250 411.068848,164.030014 
	C407.521454,163.964661 405.989014,162.168228 405.498657,158.690781 
	C406.370117,155.539825 407.149170,152.722946 408.072662,150.002716 
	C408.311493,150.015656 408.405884,149.931900 408.500275,149.848145 
	C408.420898,149.796036 408.295502,149.683167 408.270172,149.702362 
	C408.162292,149.784134 408.084045,149.904999 407.677216,150.117218 
	C402.285065,154.498901 397.210663,158.774963 391.752136,162.966965 
	C388.080139,162.921280 384.792023,163.009232 381.504578,162.988815 
	C371.227783,162.925003 360.945068,162.969467 350.682098,162.548126 
	C349.355103,162.493652 348.130371,159.947906 347.120575,158.328461 
	C350.064514,156.854218 352.991394,155.960464 355.383850,154.297775 
	C364.009918,148.302933 372.455994,142.049057 380.996918,136.290558 
	C382.366547,137.789734 383.623291,139.699356 385.066956,139.853043 
	C391.293335,140.515930 397.576477,140.974152 403.835327,140.934418 
	C416.394531,140.854752 428.950073,140.266571 441.509613,140.143356 
	C451.749969,140.042892 461.997192,140.193375 472.235168,140.465363 
	C478.300598,140.626495 484.360535,141.644196 490.411133,141.546326 
	C497.947113,141.424423 505.470917,140.549652 513.000000,140.000000 
z"/>
<path fill="#4FBBA3" opacity="1.000000" stroke="none" 
	d="
M405.406250,159.024841 
	C405.989014,162.168228 407.521454,163.964661 411.068848,164.030014 
	C421.666290,164.225250 432.259308,164.901428 442.854492,164.911484 
	C452.933685,164.921051 463.014160,164.044571 473.092712,164.071548 
	C485.773132,164.105530 498.452179,164.661758 511.817078,164.994751 
	C512.502380,164.996872 513.000000,165.000000 513.000000,165.000000 
	C513.000000,170.688034 513.000000,176.376083 512.815247,182.835693 
	C512.753662,185.404846 512.876831,187.202423 513.000000,189.000000 
	C513.000000,189.750000 513.000000,190.500000 513.000000,191.625000 
	C496.454498,192.643478 479.911255,193.361755 463.361603,193.869492 
	C459.913635,193.975266 456.440613,193.035248 452.981140,193.049744 
	C447.571991,193.072418 442.164337,193.494400 436.756561,193.758072 
	C436.094696,193.790344 435.432312,193.974106 434.776489,193.945053 
	C421.074341,193.338104 407.375275,192.653198 393.670074,192.128326 
	C390.333130,192.000519 388.791199,190.549179 388.899719,186.556244 
	C394.458496,176.891846 399.932373,167.958344 405.406250,159.024841 
z"/>
<path fill="#53C2A2" opacity="1.000000" stroke="none" 
	d="
M513.000000,139.532394 
	C505.470917,140.549652 497.947113,141.424423 490.411133,141.546326 
	C484.360535,141.644196 478.300598,140.626495 472.235168,140.465363 
	C461.997192,140.193375 451.749969,140.042892 441.509613,140.143356 
	C428.950073,140.266571 416.394531,140.854752 403.835327,140.934418 
	C397.576477,140.974152 391.293335,140.515930 385.066956,139.853043 
	C383.623291,139.699356 382.366547,137.789734 381.168976,136.008820 
	C388.734955,127.294128 396.155792,119.258713 403.769440,111.590683 
	C406.371277,116.249214 410.723724,115.890686 414.547546,115.887291 
	C431.873138,115.871887 449.198456,115.411491 466.523926,115.406601 
	C481.680511,115.402313 496.837250,115.791634 511.994934,116.417740 
	C512.330688,118.885612 512.665344,120.942802 513.000000,123.000000 
	C513.000000,128.354935 513.000000,133.709854 513.000000,139.532394 
z"/>
<path fill="#4BB5A4" opacity="1.000000" stroke="none" 
	d="
M363.994781,210.986328 
	C362.367188,217.975464 362.369415,218.100540 369.585449,217.971802 
	C381.822968,217.753494 394.060730,217.012421 406.292145,217.132004 
	C420.080475,217.266800 433.859039,218.216370 447.648010,218.575653 
	C451.422333,218.673981 455.217377,217.642578 459.005280,217.624329 
	C467.467102,217.583557 475.932617,218.044754 484.392548,217.946945 
	C493.640686,217.839996 502.884216,217.333466 512.564880,217.000549 
	C513.000000,220.030594 513.000000,223.061188 512.803223,226.880096 
	C512.401062,229.779846 512.195740,231.891281 511.610840,234.084137 
	C503.813110,234.438705 496.392670,234.984970 488.977234,234.923981 
	C476.400513,234.820587 463.828552,234.206573 451.251526,234.044128 
	C438.522095,233.879730 425.787323,233.875336 413.057922,234.037659 
	C401.477661,234.185318 389.903320,234.782364 378.323059,234.939987 
	C366.399261,235.102295 354.471252,235.009384 342.545715,234.932129 
	C340.741028,234.920456 338.674866,234.839386 337.205841,233.978149 
	C335.483673,232.968491 334.282349,231.070404 333.116486,229.344925 
	C343.583466,223.083572 353.789124,217.034958 363.994781,210.986328 
z"/>
<path fill="#55C6A1" opacity="1.000000" stroke="none" 
	d="
M511.993896,116.007072 
	C496.837250,115.791634 481.680511,115.402313 466.523926,115.406601 
	C449.198456,115.411491 431.873138,115.871887 414.547546,115.887291 
	C410.723724,115.890686 406.371277,116.249214 403.891571,111.294571 
	C408.133606,102.727898 412.446289,94.824722 416.759003,86.921547 
	C416.947296,88.193161 416.727753,89.782249 417.415222,90.665298 
	C418.576508,92.157097 420.320984,94.276688 421.804504,94.264206 
	C433.366547,94.166969 444.924316,93.326118 456.484467,93.304817 
	C467.160675,93.285141 477.835724,94.118958 488.516174,94.335098 
	C494.046448,94.447021 499.755066,94.805862 505.077576,93.648262 
	C510.700500,92.425316 512.211304,94.651596 512.805664,99.670837 
	C513.000000,105.022095 513.000000,110.044182 512.748474,115.534424 
	C512.329285,116.004074 512.161560,116.005569 511.993896,116.007072 
z"/>
<path fill="#4296B1" opacity="1.000000" stroke="none" 
	d="
M1.000000,424.468658 
	C1.335496,430.356415 1.670993,436.712860 2.006290,444.004883 
	C2.007673,450.294006 2.009254,455.647491 2.008350,461.461548 
	C2.008302,465.615051 2.010740,469.308014 2.011299,473.465576 
	C2.011889,478.288452 2.014358,482.646667 2.013328,487.470490 
	C2.009329,492.624054 2.008829,497.312012 2.005826,502.453186 
	C2.002114,503.739258 1.994117,504.572113 2.000771,505.404877 
	C2.052447,511.872070 2.151285,511.967041 8.850790,512.000854 
	C9.850170,512.005859 10.849596,512.002258 11.849000,512.002258 
	C175.251633,512.002319 338.654266,512.004395 502.056915,511.997406 
	C512.825012,511.996948 511.998688,512.906921 511.993652,501.535034 
	C511.991669,496.380859 511.987488,491.692871 511.986145,486.538483 
	C511.988251,481.382202 511.987488,476.692322 511.989990,471.539001 
	C511.991821,467.051208 511.990417,463.026825 511.990906,458.535431 
	C511.991241,453.048065 511.989685,448.027679 511.988129,443.007324 
	C512.190613,437.577667 512.393188,432.148010 512.797852,426.359192 
	C513.000000,454.981537 513.000000,483.963104 513.000000,512.942688 
	C342.333313,512.940735 171.666656,512.940735 1.000000,512.940735 
	C1.000000,483.566742 1.000000,454.252045 1.000000,424.468658 
z"/>
<path fill="#47ADA6" opacity="1.000000" stroke="none" 
	d="
M1.000002,376.468658 
	C1.330768,377.415283 1.661533,378.830597 1.996789,380.622314 
	C1.800568,391.425110 1.599854,401.851471 1.199570,412.638916 
	C1.000000,400.979095 1.000000,388.958221 1.000002,376.468658 
z"/>
<path fill="#46ACA6" opacity="1.000000" stroke="none" 
	d="
M513.000000,409.531342 
	C512.666748,402.978729 512.333557,395.957458 511.998352,388.467468 
	C512.198120,383.903809 512.399902,379.808868 512.800903,375.356934 
	C513.000000,386.354218 513.000000,397.708466 513.000000,409.531342 
z"/>
<path fill="#4DB8A4" opacity="1.000000" stroke="none" 
	d="
M512.001831,307.466492 
	C512.212952,306.175598 512.425903,305.353668 512.819458,304.265869 
	C513.000000,313.687561 513.000000,323.375122 512.755493,333.524719 
	C512.511047,333.986786 512.022095,333.973419 512.022095,333.973419 
	C512.015930,325.294067 512.009827,316.614746 512.001831,307.466492 
z"/>
<path fill="#47ADA6" opacity="1.000000" stroke="none" 
	d="
M2.007898,309.594788 
	C1.809015,316.764801 1.607301,323.522797 1.202794,330.640381 
	C1.000000,321.979095 1.000000,312.958221 1.000000,303.468658 
	C1.335022,305.060913 1.670045,307.121826 2.007898,309.594788 
z"/>
<path fill="#4DB8A4" opacity="1.000000" stroke="none" 
	d="
M511.990356,234.002716 
	C512.195740,231.891281 512.401062,229.779846 512.803223,227.334198 
	C513.000000,235.020905 513.000000,243.041809 513.000000,251.531357 
	C513.000000,252.000000 512.749390,252.000000 512.749390,252.000000 
	C512.749390,252.000000 512.498779,251.999985 512.248901,251.531113 
	C511.996094,245.375732 511.993225,239.689224 511.990356,234.002716 
z"/>
<path fill="#4DB8A4" opacity="1.000000" stroke="none" 
	d="
M1.000001,261.468628 
	C1.333940,262.736969 1.667879,264.473907 2.004822,266.606659 
	C1.806408,273.095032 1.604988,279.187653 1.201784,285.640137 
	C1.000000,277.979095 1.000000,269.958191 1.000001,261.468628 
z"/>
<path fill="#47ADA6" opacity="1.000000" stroke="none" 
	d="
M2.004103,348.625427 
	C1.806614,355.428070 1.604487,361.853729 1.201180,368.639679 
	C1.000000,360.979095 1.000000,352.958191 1.000000,344.468628 
	C1.333155,345.416138 1.666311,346.832245 2.004103,348.625427 
z"/>
<path fill="#4DB8A4" opacity="1.000000" stroke="none" 
	d="
M513.000000,285.531372 
	C512.665222,282.634155 512.330505,279.268311 511.993530,275.451843 
	C512.193542,270.572632 512.395752,266.144012 512.798950,261.357727 
	C513.000000,269.020905 513.000000,277.041809 513.000000,285.531372 
z"/>
<path fill="#46ACA6" opacity="1.000000" stroke="none" 
	d="
M513.000000,367.531372 
	C512.664612,360.980286 512.329224,353.960602 511.992065,346.472839 
	C512.208618,345.484467 512.427002,344.964142 512.822693,344.221893 
	C513.000000,351.687592 513.000000,359.375153 513.000000,367.531372 
z"/>
<path fill="#4DB8A4" opacity="1.000000" stroke="none" 
	d="
M2.005507,230.628265 
	C1.808306,236.764267 1.606903,242.522858 1.202750,248.640717 
	C1.000000,241.645752 1.000000,234.291504 1.000000,226.468628 
	C1.333768,227.416946 1.667537,228.833908 2.005507,230.628265 
z"/>
<path fill="#56C7A1" opacity="1.000000" stroke="none" 
	d="
M513.000000,164.531586 
	C513.000000,165.000000 512.502380,164.996872 512.253662,164.994171 
	C512.202148,158.567703 512.399475,152.143906 512.798340,145.360062 
	C513.000000,151.354401 513.000000,157.708786 513.000000,164.531586 
z"/>
<path fill="#52C1A2" opacity="1.000000" stroke="none" 
	d="
M1.000000,182.444168 
	C1.128599,184.448303 1.257198,186.896606 1.192899,189.672455 
	C1.000000,187.629440 1.000000,185.258896 1.000000,182.444168 
z"/>
<path fill="#58CBA0" opacity="1.000000" stroke="none" 
	d="
M2.000295,97.649719 
	C1.796385,98.826401 1.582239,99.649208 1.184047,100.736008 
	C1.000000,98.958336 1.000000,96.916664 1.000000,94.437500 
	C1.330020,95.098610 1.660040,96.197220 2.000295,97.649719 
z"/>
<path fill="#56C7A1" opacity="1.000000" stroke="none" 
	d="
M511.994934,116.417740 
	C512.161560,116.005569 512.329285,116.004074 512.748474,116.001289 
	C513.000000,118.041664 513.000000,120.083336 513.000000,122.562500 
	C512.665344,120.942802 512.330688,118.885612 511.994934,116.417740 
z"/>
<path fill="#56C7A1" opacity="1.000000" stroke="none" 
	d="
M513.000000,188.571533 
	C512.876831,187.202423 512.753662,185.404846 512.815247,183.303635 
	C513.000000,184.714355 513.000000,186.428711 513.000000,188.571533 
z"/>
<path fill="#66D5A4" opacity="1.000000" stroke="none" 
	d="
M1.000000,22.428463 
	C1.169081,21.998974 1.338162,21.997948 1.761046,21.997658 
	C1.806174,23.781725 1.597499,25.565056 1.194412,27.674194 
	C1.000000,26.285643 1.000000,24.571283 1.000000,22.428463 
z"/>
<path fill="#58CBA0" opacity="1.000000" stroke="none" 
	d="
M1.000000,117.428467 
	C1.333100,118.735306 1.666200,120.470612 2.000528,122.600975 
	C1.834799,122.997261 1.667842,122.998497 1.250442,122.999863 
	C1.000000,121.285645 1.000000,119.571281 1.000000,117.428467 
z"/>
<path fill="#66D5A4" opacity="1.000000" stroke="none" 
	d="
M512.014038,23.321281 
	C512.154236,22.997904 512.323364,22.997412 512.746277,22.998459 
	C513.000000,23.750000 513.000000,24.500000 513.000000,25.624996 
	C512.681030,25.214714 512.362000,24.429440 512.014038,23.321281 
z"/>
<path fill="#46ACA6" opacity="1.000000" stroke="none" 
	d="
M512.167847,334.160400 
	C512.022095,333.973419 512.511047,333.986786 512.755493,333.993408 
	C513.000000,334.000000 513.000000,334.500000 513.000000,334.750000 
	C512.752808,334.801758 512.523987,334.584229 512.167847,334.160400 
z"/>
<path fill="#58CBA0" opacity="1.000000" stroke="none" 
	d="
M1.000000,145.250000 
	C1.164373,145.238739 1.205186,145.491989 1.061219,145.879852 
	C1.000000,146.000000 1.000000,145.500000 1.000000,145.250000 
z"/>
<path fill="#66D5A4" opacity="1.000000" stroke="none" 
	d="
M513.000000,1.500000 
	C512.752014,1.804587 512.518555,1.593134 512.149841,1.182820 
	C512.333313,1.000000 512.666687,1.000000 513.000000,1.500000 
z"/>
<path fill="#66D5A4" opacity="1.000000" stroke="none" 
	d="
M1.500000,1.000000 
	C1.813448,1.255880 1.600504,1.487497 1.180584,1.847425 
	C1.000000,1.666667 1.000000,1.333333 1.500000,1.000000 
z"/>
<path fill="#FDFEFE" opacity="1.000000" stroke="none" 
	d="
M416.834778,86.561127 
	C412.446289,94.824722 408.133606,102.727898 403.698761,110.927177 
	C396.155792,119.258713 388.734955,127.294128 381.142090,135.611282 
	C372.455994,142.049057 364.009918,148.302933 355.383850,154.297775 
	C352.991394,155.960464 350.064514,156.854218 346.770142,158.437042 
	C325.601318,167.096939 305.044678,175.419418 284.489532,183.745560 
	C281.654449,184.893936 278.826721,186.060486 275.642761,187.265396 
	C271.283661,188.903610 267.164337,190.260300 263.290344,192.126343 
	C244.494400,201.179993 225.764267,210.370209 206.669647,219.648315 
	C192.462891,228.083984 179.191223,237.161148 168.043411,249.019638 
	C165.123993,252.125443 162.204559,255.231247 158.879517,258.707825 
	C158.337799,259.381470 158.201706,259.684265 158.065613,259.987091 
	C156.064499,262.757294 154.063385,265.527496 151.717590,268.839935 
	C145.178665,279.267120 140.278946,289.669495 138.399384,301.722412 
	C135.125793,317.517212 135.934998,332.809540 139.796295,348.409210 
	C142.425095,362.847687 146.236893,376.493774 152.936600,389.567963 
	C158.283905,398.688293 163.578186,407.460602 168.942261,416.545746 
	C169.029190,417.266907 169.046326,417.675232 169.063461,418.083588 
	C166.738419,416.104523 164.413376,414.125488 161.833862,411.955322 
	C153.792923,402.380646 145.982712,393.016571 138.244064,383.593689 
	C136.995895,382.073853 136.066513,380.292206 134.723389,378.380676 
	C127.907372,367.845123 121.357735,357.560516 114.514282,347.101074 
	C112.655739,343.312897 110.860367,339.779663 109.570999,336.070587 
	C106.165253,326.273376 102.978844,316.399872 99.525879,306.225464 
	C97.382317,292.333832 97.362816,278.899902 101.979767,265.384064 
	C107.579018,251.579788 115.990631,240.215652 127.093498,230.384155 
	C146.690262,213.123505 169.646332,202.485870 193.669067,192.983154 
	C228.769058,180.623459 263.543335,168.454803 298.658539,156.131836 
	C319.642975,149.516937 338.691467,139.691345 357.056854,128.431946 
	C360.664642,126.220108 364.221283,123.924889 367.965881,121.356873 
	C375.783447,115.859154 383.500549,110.763435 391.056549,105.439064 
	C393.857697,103.465225 396.280640,100.954704 399.039062,98.387039 
	C403.569183,94.057121 408.015839,90.110764 412.270325,85.967064 
	C414.441956,83.851974 416.268768,81.382835 418.634216,79.317902 
	C419.017029,79.562103 419.144043,79.997421 419.144043,79.997421 
	C418.399536,82.065178 417.655029,84.132942 416.834778,86.561127 
z"/>
<path fill="#FDFEFE" opacity="1.000000" stroke="none" 
	d="
M219.131821,265.042511 
	C229.339432,264.648468 239.647232,263.170502 249.732300,264.102509 
	C266.865784,265.685913 281.105133,274.102203 293.076355,286.346130 
	C295.510071,288.835327 297.866089,291.400482 300.572388,294.436615 
	C293.794525,302.891602 286.702148,310.840637 278.977264,319.498566 
	C264.017670,298.443298 244.861145,291.120972 221.411545,300.063660 
	C205.045059,306.305145 197.128754,319.879913 194.378815,337.163086 
	C194.407227,342.459808 194.314972,347.475525 195.035446,352.371643 
	C198.595963,376.567688 220.684769,393.497070 244.833557,389.926758 
	C259.789795,387.715515 270.241669,378.680725 277.853363,364.524109 
	C271.334290,364.524109 265.781158,364.524109 259.535034,364.524109 
	C259.535034,353.261230 259.535034,342.641174 259.930176,331.822266 
	C278.353851,331.623383 296.382355,331.623383 314.517578,331.623383 
	C314.716614,334.065887 314.877014,336.034363 314.954742,338.459534 
	C315.255768,353.237427 312.399292,366.894257 306.248047,380.219788 
	C303.400299,384.692047 300.994110,389.028259 298.095093,393.005219 
	C290.447968,403.495850 280.179993,410.878387 268.850372,416.916473 
	C268.850372,416.916473 268.370819,416.959564 267.910828,417.108643 
	C267.191284,417.473999 266.931702,417.690338 266.672119,417.906647 
	C266.672119,417.906647 266.300903,417.905060 265.867584,418.016296 
	C264.949738,418.402588 264.465210,418.677673 263.980682,418.952789 
	C256.509308,420.630402 249.087616,423.324341 241.552200,423.692871 
	C234.362946,424.044495 227.055145,421.972778 219.090912,420.777466 
	C212.398026,418.076355 206.413727,415.564178 200.212555,412.830139 
	C189.856140,406.196228 181.484589,397.974396 174.724106,387.682343 
	C167.565964,375.511444 163.086884,362.818207 162.104370,348.537231 
	C161.552185,333.442139 164.412308,319.477997 170.502289,305.857880 
	C177.828918,291.326050 188.903137,280.754944 202.053207,272.123688 
	C207.129974,270.113129 212.206741,268.102570 217.910446,265.974304 
	C218.735519,265.585205 218.933670,265.313873 219.131821,265.042511 
z"/>
<path fill="#3996AB" opacity="1.000000" stroke="none" 
	d="
M2.010835,461.000977 
	C2.009254,455.647491 2.007673,450.294006 2.008662,444.473633 
	C9.098971,443.927277 16.188395,443.917725 23.273945,443.747192 
	C29.540062,443.596375 35.804451,443.007324 42.065037,443.069794 
	C54.680443,443.195648 67.291885,443.822449 79.906609,443.879456 
	C89.321915,443.921997 98.738647,443.231476 108.156837,443.165558 
	C118.073593,443.096100 127.992661,443.459808 137.911041,443.481323 
	C143.847763,443.494171 149.787140,443.034790 155.721786,443.101471 
	C169.119034,443.251923 182.513306,443.740906 195.910324,443.814484 
	C205.329208,443.866211 214.749863,443.400696 224.171173,443.279510 
	C230.779510,443.194489 237.390488,443.275726 243.999939,443.327301 
	C252.398544,443.392883 260.796692,443.518646 269.195251,443.591339 
	C284.142975,443.720764 299.091339,443.955933 314.038544,443.901733 
	C323.457489,443.867584 332.873474,443.231262 342.293243,443.150940 
	C352.042267,443.067749 361.794250,443.418793 371.544830,443.412720 
	C379.144653,443.407990 386.746826,442.947968 394.343445,443.045135 
	C406.809998,443.204590 419.271912,443.853729 431.737549,443.911102 
	C440.985931,443.953674 450.236572,443.169769 459.487213,443.146667 
	C469.749054,443.121002 480.011658,443.690399 490.274628,443.715820 
	C497.217499,443.733032 504.161560,443.258118 511.546631,443.005310 
	C511.989685,448.027679 511.991241,453.048065 511.560425,458.539062 
	C501.025177,459.131866 490.922363,459.259888 480.819427,459.373810 
	C475.257080,459.436554 469.691071,459.612030 464.133240,459.473663 
	C460.861816,459.392242 457.594482,458.436249 454.340820,458.514893 
	C449.411621,458.633972 444.494598,459.697174 439.574738,459.680206 
	C424.354675,459.627747 409.133820,458.981323 393.916931,459.087860 
	C380.695526,459.180450 367.471436,460.487915 354.263275,460.287598 
	C346.090332,460.163635 338.076477,458.840485 329.690704,459.524017 
	C316.587738,460.592102 303.315491,459.485199 290.115021,459.489288 
	C280.827789,459.492126 271.541107,459.901459 262.253235,459.949799 
	C257.290253,459.975616 252.325775,459.490601 247.361145,459.472961 
	C241.776901,459.453094 236.187241,459.882629 230.608994,459.746307 
	C228.170883,459.686707 225.750473,458.212341 223.330353,458.235901 
	C215.605301,458.311157 207.886902,458.911133 200.160919,459.083496 
	C183.191010,459.462128 166.217804,459.690887 149.246384,460.004333 
	C139.494202,460.184479 129.742920,460.412598 119.991051,460.609894 
	C119.496574,460.619873 118.953865,460.660187 118.511673,460.487000 
	C106.697845,455.860962 94.595299,460.767181 82.589264,459.394684 
	C72.323654,458.221161 61.823021,459.135040 51.426903,459.054016 
	C47.951630,459.026947 44.469669,458.553558 41.005688,458.683105 
	C35.568630,458.886444 30.147848,459.489044 24.713610,459.812134 
	C17.149195,460.261810 9.578716,460.609558 2.010835,461.000977 
z"/>
<path fill="#FDFEFE" opacity="1.000000" stroke="none" 
	d="
M403.065430,384.629059 
	C396.819855,398.910736 387.146759,409.586914 373.250549,416.778717 
	C363.272827,421.134155 353.108795,422.514404 342.012817,421.411133 
	C340.267365,420.754822 339.129425,420.547852 337.991516,420.340881 
	C334.903778,419.290466 331.816010,418.240021 328.102112,416.913757 
	C323.411133,414.464722 319.346375,412.291473 315.012360,409.974304 
	C319.212494,400.730835 323.225159,391.899841 327.479797,382.855408 
	C329.089417,382.552887 330.626495,382.014160 331.794800,382.454315 
	C336.291565,384.148376 340.509155,386.890808 345.124512,387.902557 
	C356.948212,390.494446 368.004425,384.338867 373.239166,373.020844 
	C378.900177,360.781189 375.978912,346.595367 365.943176,338.279968 
	C361.293488,335.932617 356.657349,334.156586 352.434845,331.676392 
	C347.885437,329.004181 342.832306,326.412201 339.569122,322.481659 
	C331.605225,312.889008 328.626190,301.499786 330.787476,289.004761 
	C334.578918,276.155090 341.810822,266.473724 355.292786,262.681610 
	C367.813324,259.159882 378.302460,263.578522 387.911224,271.614136 
	C383.944397,281.289124 379.974762,290.604675 375.913513,300.258850 
	C372.992798,299.409912 370.207794,298.096863 367.318359,297.080780 
	C365.518036,296.447632 363.559937,296.263184 361.672638,295.877411 
	C361.419769,296.451569 361.166901,297.025726 360.914032,297.599884 
	C362.475891,298.712158 363.963745,299.951050 365.612549,300.914581 
	C372.406128,304.884705 379.762909,308.102570 385.943390,312.856995 
	C393.747406,318.860352 399.052399,327.198364 403.018921,336.946930 
	C403.390472,337.798309 403.650360,338.032318 403.910248,338.266296 
	C403.944244,338.660583 403.978210,339.054840 404.072021,340.005585 
	C404.396210,340.786621 404.660553,341.011230 404.924866,341.235809 
	C404.924866,341.235809 404.899628,341.172546 404.875305,341.196411 
	C408.377594,355.733765 408.765228,370.118622 403.065430,384.629059 
z"/>
<path fill="#3E9CAA" opacity="1.000000" stroke="none" 
	d="
M327.237854,383.068848 
	C323.225159,391.899841 319.212494,400.730835 315.012360,409.974304 
	C319.346375,412.291473 323.411133,414.464722 327.738556,416.867218 
	C327.802612,420.891327 325.132538,420.917999 322.304474,420.986511 
	C313.720490,421.194458 305.139099,421.726318 296.556763,421.724579 
	C288.799652,421.723022 281.030212,421.344269 273.297028,420.738434 
	C271.894257,420.628510 270.640198,418.620514 269.083923,417.202606 
	C280.179993,410.878387 290.447968,403.495850 298.095093,393.005219 
	C300.994110,389.028259 303.400299,384.692047 306.451904,380.627441 
	C308.727631,381.818451 310.550629,383.748169 312.443878,383.819763 
	C317.358734,384.005524 322.304443,383.374115 327.237854,383.068848 
z"/>
<path fill="#3C9CA9" opacity="1.000000" stroke="none" 
	d="
M200.429413,413.051971 
	C206.413727,415.564178 212.398026,418.076355 218.691711,420.791290 
	C221.986084,422.935303 224.971100,424.876587 228.594025,427.232758 
	C226.914536,427.518768 225.728470,427.917358 224.552109,427.890533 
	C213.347595,427.634827 202.146072,427.169586 190.940811,427.060059 
	C185.633926,427.008148 180.407761,427.147308 175.263824,423.740753 
	C173.939850,422.946136 173.104660,422.471161 172.137115,421.705231 
	C171.660065,420.642303 171.315384,419.870361 170.845795,418.898376 
	C170.541245,418.439148 170.339478,418.198486 169.829041,417.884247 
	C169.351562,417.853821 169.160614,417.915527 168.969666,417.977264 
	C168.969666,417.977264 169.029144,418.019348 169.046295,418.051453 
	C169.046326,417.675232 169.029190,417.266907 169.287079,416.310822 
	C172.812500,415.697754 176.083801,415.843414 179.309021,415.523865 
	C186.361572,414.825256 193.390717,413.890350 200.429413,413.051971 
z"/>
<path fill="#FDFEFE" opacity="1.000000" stroke="none" 
	d="
M170.970718,419.098389 
	C171.315384,419.870361 171.660065,420.642303 172.083282,421.959198 
	C172.096832,422.664581 172.031860,422.825012 171.966888,422.985413 
	C170.752121,421.468994 169.537354,419.952606 168.646118,418.206726 
	C169.160614,417.915527 169.351562,417.853821 169.881729,418.129028 
	C170.470871,418.676758 170.720795,418.887573 170.970718,419.098389 
z"/>
<path fill="#3E9CAA" opacity="1.000000" stroke="none" 
	d="
M172.258972,423.119629 
	C172.031860,422.825012 172.096832,422.664581 172.215652,422.250153 
	C173.104660,422.471161 173.939850,422.946136 174.889374,423.701416 
	C174.186188,423.739075 173.368622,423.496429 172.258972,423.119629 
z"/>
<path fill="#3E9CAA" opacity="1.000000" stroke="none" 
	d="
M338.209320,420.626434 
	C339.129425,420.547852 340.267365,420.754822 341.635315,421.229004 
	C340.719269,421.301483 339.573212,421.106750 338.209320,420.626434 
z"/>
<path fill="#3E9CAA" opacity="1.000000" stroke="none" 
	d="
M264.173340,419.076843 
	C264.465210,418.677673 264.949738,418.402588 265.718781,418.127197 
	C265.457520,418.484894 264.911774,418.842896 264.173340,419.076843 
z"/>
<path fill="#3E9CAA" opacity="1.000000" stroke="none" 
	d="
M266.901611,417.819458 
	C266.931702,417.690338 267.191284,417.473999 267.708466,417.238953 
	C267.708252,417.424316 267.429932,417.595001 266.901611,417.819458 
z"/>
<path fill="#55C6A1" opacity="1.000000" stroke="none" 
	d="
M419.338837,79.924042 
	C419.144043,79.997421 419.017029,79.562103 418.981842,79.338120 
	C419.328766,79.034042 419.710907,78.953949 420.093018,78.873856 
	C419.906555,79.199455 419.720093,79.525063 419.338837,79.924042 
z"/>
<path fill="#44A8A7" opacity="1.000000" stroke="none" 
	d="
M330.485535,289.146851 
	C328.626190,301.499786 331.605225,312.889008 339.569122,322.481659 
	C342.832306,326.412201 347.885437,329.004181 352.434845,331.676392 
	C356.657349,334.156586 361.293488,335.932617 365.906982,338.708740 
	C366.034088,343.153290 363.751221,344.000916 360.482849,344.023224 
	C349.921326,344.095245 339.359222,344.477417 328.800507,344.383362 
	C324.160950,344.342041 318.957733,344.700867 316.770874,338.843384 
	C316.608398,338.408142 315.634247,338.275940 315.037415,338.002838 
	C314.877014,336.034363 314.716614,334.065887 314.517578,331.623383 
	C296.382355,331.623383 278.353851,331.623383 259.655945,332.053467 
	C258.733490,332.906738 258.345490,333.301453 258.249268,333.757690 
	C257.620911,336.737640 258.033722,340.928284 256.217987,342.411316 
	C254.037170,344.192413 249.985382,343.758636 246.725082,344.112152 
	C244.933090,344.306396 243.102570,344.127747 241.289871,344.151489 
	C231.706497,344.276947 222.109192,344.135223 212.543640,344.618530 
	C201.380386,345.182587 197.992584,343.955353 194.632812,336.826935 
	C197.128754,319.879913 205.045059,306.305145 221.411545,300.063660 
	C244.861145,291.120972 264.017670,298.443298 278.977264,319.498566 
	C286.702148,310.840637 293.794525,302.891602 300.869263,294.598572 
	C305.679962,290.108612 311.509003,292.434387 316.521637,292.832428 
	C321.920959,293.261108 326.123779,292.427368 330.485535,289.146851 
z"/>
<path fill="#FCFEFE" opacity="1.000000" stroke="none" 
	d="
M364.179565,210.709076 
	C353.789124,217.034958 343.583466,223.083572 332.753296,229.442108 
	C321.359619,233.344955 310.758392,237.613358 299.774780,240.343323 
	C288.496460,243.146530 276.907288,245.083237 265.338287,246.223663 
	C254.005157,247.340866 242.526108,246.977524 231.111099,247.264008 
	C217.195236,248.046188 203.826569,251.309433 190.877121,256.330322 
	C186.471573,258.038483 182.213577,260.127228 177.348328,261.903870 
	C176.690201,261.632629 176.571915,261.499512 176.453613,261.366394 
	C180.789139,258.289215 185.124649,255.212036 190.022873,251.774445 
	C195.380295,248.301147 199.970840,244.799545 205.010239,242.152512 
	C217.270401,235.712662 229.738937,229.669479 242.436554,223.399597 
	C259.520844,218.209351 276.249756,212.941849 293.075317,208.003555 
	C309.664185,203.134750 326.350952,198.599274 343.354248,193.889160 
	C345.541016,193.094498 347.392975,192.381821 349.191711,191.553513 
	C364.983856,184.281235 379.632080,175.279739 392.136292,163.051025 
	C397.210663,158.774963 402.285065,154.498901 407.660583,150.090805 
	C407.961731,149.958755 407.928223,149.906052 407.928223,149.906052 
	C407.149170,152.722946 406.370117,155.539825 405.498657,158.690765 
	C399.932373,167.958344 394.458496,176.891846 388.844849,186.114197 
	C380.591492,194.412643 372.477936,202.422241 364.179565,210.709076 
z"/>
<path fill="#4AB3A5" opacity="1.000000" stroke="none" 
	d="
M231.111816,247.667908 
	C242.526108,246.977524 254.005157,247.340866 265.338287,246.223663 
	C276.907288,245.083237 288.496460,243.146530 299.774780,240.343323 
	C310.758392,237.613358 321.359619,233.344955 332.491943,229.654846 
	C334.282349,231.070404 335.483673,232.968491 337.205841,233.978149 
	C338.674866,234.839386 340.741028,234.920456 342.545715,234.932129 
	C354.471252,235.009384 366.399261,235.102295 378.323059,234.939987 
	C389.903320,234.782364 401.477661,234.185318 413.057922,234.037659 
	C425.787323,233.875336 438.522095,233.879730 451.251526,234.044128 
	C463.828552,234.206573 476.400513,234.820587 488.977234,234.923981 
	C496.392670,234.984970 503.813110,234.438705 511.610840,234.084137 
	C511.993225,239.689224 511.996094,245.375732 511.998260,251.529907 
	C503.420410,251.746872 494.843842,251.328110 486.265961,251.299301 
	C479.554840,251.276764 472.841339,251.955490 466.130157,251.933411 
	C455.715393,251.899109 445.302429,251.403702 434.887329,251.346268 
	C424.967407,251.291565 415.045685,251.646515 405.124847,251.641159 
	C393.421112,251.634827 381.717621,251.415756 370.013702,251.327621 
	C364.785736,251.288254 359.556549,251.302750 354.328735,251.362946 
	C337.402374,251.557800 320.476837,251.887817 303.550110,251.963821 
	C292.323456,252.014236 281.094574,251.573593 269.867950,251.626312 
	C261.510651,251.665558 253.156876,252.270676 244.798538,252.368576 
	C240.965881,252.413467 237.091248,252.049408 233.314941,251.405716 
	C232.417450,251.252731 231.838165,249.232910 231.111816,247.667908 
z"/>
<path fill="#47ADA6" opacity="1.000000" stroke="none" 
	d="
M201.711533,271.905701 
	C188.903137,280.754944 177.828918,291.326050 170.037659,305.840363 
	C162.767853,305.604095 156.127319,304.346344 149.669556,304.972717 
	C144.959442,305.429565 141.704788,304.359711 138.593063,301.356415 
	C140.278946,289.669495 145.178665,279.267120 151.637299,269.172913 
	C155.159149,269.596313 158.403976,270.308533 161.679428,270.827454 
	C163.273224,271.079987 164.924164,270.973450 166.549347,271.025818 
	C170.800110,271.162750 175.050079,271.349274 179.301971,271.422058 
	C186.657303,271.548004 194.013824,271.602936 201.711533,271.905701 
z"/>
<path fill="#4AB3A5" opacity="1.000000" stroke="none" 
	d="
M242.123535,223.466522 
	C229.738937,229.669479 217.270401,235.712662 205.010239,242.152512 
	C199.970840,244.799545 195.380295,248.301147 190.283936,251.540359 
	C188.522827,251.377975 187.075409,250.964996 185.601822,250.822632 
	C179.964462,250.277985 174.318665,249.820343 168.359711,249.174927 
	C179.191223,237.161148 192.462891,228.083984 206.615997,220.021744 
	C206.513687,222.481140 205.908951,224.764236 209.563477,224.570160 
	C219.090622,224.064163 228.620483,223.606216 238.151611,223.181992 
	C239.468765,223.123367 240.799225,223.364273 242.123535,223.466522 
z"/>
<path fill="#47ADA6" opacity="1.000000" stroke="none" 
	d="
M175.999573,263.131104 
	C175.148560,263.928162 174.297531,264.725220 173.446518,265.522278 
	C173.515976,264.774475 173.585434,264.026733 174.204910,263.134216 
	C175.169800,263.036652 175.584671,263.083862 175.999573,263.131104 
z"/>
<path fill="#FCFEFE" opacity="1.000000" stroke="none" 
	d="
M176.233139,263.018738 
	C175.584671,263.083862 175.169800,263.036652 174.441177,262.971497 
	C174.726562,262.513672 175.325684,262.073761 176.189209,261.500122 
	C176.571915,261.499512 176.690201,261.632629 176.982452,261.968445 
	C176.926529,262.416260 176.696625,262.661316 176.233139,263.018738 
z"/>
<path fill="#47ADA6" opacity="1.000000" stroke="none" 
	d="
M218.935226,265.162964 
	C218.933670,265.313873 218.735519,265.585205 218.279663,265.859375 
	C218.243256,265.647461 218.482132,265.454559 218.935226,265.162964 
z"/>
<path fill="#47ADA6" opacity="1.000000" stroke="none" 
	d="
M158.232269,259.822815 
	C158.201706,259.684265 158.337799,259.381470 158.723404,258.999512 
	C158.802673,259.182831 158.611343,259.428894 158.232269,259.822815 
z"/>
<path fill="#FCFEFE" opacity="1.000000" stroke="none" 
	d="
M119.879875,226.152786 
	C111.258507,233.473602 105.174042,233.768509 96.735794,227.364838 
	C92.394279,221.902512 91.107292,216.252640 93.902328,209.967667 
	C96.692642,203.693314 103.303207,200.080490 109.842323,201.324875 
	C117.009003,202.688675 122.946617,208.726334 122.797516,215.545013 
	C122.722069,218.995117 120.991104,222.409012 119.879875,226.152786 
z"/>
<path fill="#40A2A8" opacity="1.000000" stroke="none" 
	d="
M404.814728,341.022766 
	C404.660553,341.011230 404.396210,340.786621 404.146332,340.293457 
	C404.369293,340.267609 404.550568,340.529236 404.814728,341.022766 
z"/>
<path fill="#40A2A8" opacity="1.000000" stroke="none" 
	d="
M403.800537,338.048706 
	C403.650360,338.032318 403.390472,337.798309 403.137970,337.294495 
	C403.353912,337.275330 403.535736,337.544159 403.800537,338.048706 
z"/>
<path fill="#50BBA3" opacity="1.000000" stroke="none" 
	d="
M391.752136,162.966965 
	C379.632080,175.279739 364.983856,184.281235 349.191711,191.553513 
	C347.392975,192.381821 345.541016,193.094498 343.154663,193.564758 
	C340.720306,192.845932 338.842377,192.047256 336.970123,192.060272 
	C322.877441,192.158203 308.786316,192.483383 294.693634,192.581970 
	C290.547546,192.610992 286.285828,192.627945 282.292847,191.711014 
	C279.972260,191.178116 278.080383,188.778351 275.995605,187.218628 
	C278.826721,186.060486 281.654449,184.893936 284.489532,183.745560 
	C305.044678,175.419418 325.601318,167.096939 346.507874,158.664734 
	C348.130371,159.947906 349.355103,162.493652 350.682098,162.548126 
	C360.945068,162.969467 371.227783,162.925003 381.504578,162.988815 
	C384.792023,163.009232 388.080139,162.921280 391.752136,162.966965 
z"/>
<path fill="#FCFEFE" opacity="1.000000" stroke="none" 
	d="
M407.978363,149.985168 
	C408.084045,149.904999 408.162292,149.784134 408.270172,149.702362 
	C408.295502,149.683167 408.420898,149.796036 408.500275,149.848145 
	C408.405884,149.931900 408.311493,150.015656 408.072632,150.002716 
	C407.928223,149.906052 407.961731,149.958755 407.978363,149.985168 
z"/>
<path fill="#3793AB" opacity="1.000000" stroke="none" 
	d="
M511.986725,472.002441 
	C511.987488,476.692322 511.988251,481.382202 511.519958,486.537109 
	C341.372864,487.003021 171.694839,487.003937 2.016826,487.004883 
	C2.014358,482.646667 2.011889,478.288452 2.386420,473.376831 
	C7.492781,472.309113 12.215364,471.443390 16.952883,471.352051 
	C27.516739,471.148285 38.088066,471.356110 48.656330,471.350800 
	C64.398476,471.342926 80.140907,471.225983 95.882622,471.293701 
	C104.302528,471.329926 112.722229,471.847504 121.140144,471.802032 
	C131.559586,471.745728 141.976212,471.286499 152.395660,471.082733 
	C163.139786,470.872589 173.886475,470.607086 184.630875,470.650818 
	C194.222900,470.689880 203.812424,471.162659 213.404770,471.360748 
	C221.939178,471.537018 230.476334,471.713287 239.011536,471.682343 
	C249.597229,471.644012 260.181946,471.286102 270.767456,471.266449 
	C279.186127,471.250824 287.606049,471.688812 296.024109,471.649200 
	C306.754639,471.598694 317.483612,471.148224 328.213837,471.124847 
	C332.166321,471.116241 336.126923,472.208313 340.072479,472.140442 
	C348.487762,471.995850 356.893250,471.158691 365.307129,471.081482 
	C379.515045,470.951111 393.726349,471.251404 407.936279,471.255280 
	C419.672577,471.258453 431.409943,470.972626 443.144806,471.066193 
	C447.767456,471.103027 452.389587,472.205658 457.003265,472.146179 
	C465.417633,472.037598 473.825043,471.115051 482.236237,471.101837 
	C492.152557,471.086212 502.069855,471.675446 511.986725,472.002441 
z"/>
<path fill="#3590AC" opacity="1.000000" stroke="none" 
	d="
M2.013328,487.470490 
	C171.694839,487.003937 341.372864,487.003021 511.517090,487.003479 
	C511.987488,491.692871 511.991669,496.380859 511.555542,501.534424 
	C503.158325,501.995911 495.334351,501.210754 487.210480,501.992340 
	C474.815308,503.184998 462.143524,501.384949 449.584167,501.035797 
	C442.473846,500.838104 435.351807,500.907318 428.238312,501.036377 
	C424.258698,501.108582 420.289001,501.696442 416.309021,501.782898 
	C411.993042,501.876709 407.670166,501.663757 403.350525,501.573669 
	C399.205841,501.487213 395.033508,501.039520 390.923157,501.370117 
	C383.969177,501.929382 377.031403,501.379547 370.012451,501.984253 
	C358.033295,503.016357 345.834656,501.358337 333.722534,501.064514 
	C329.261993,500.956360 324.784546,501.728882 320.316345,501.711304 
	C314.172272,501.687134 308.027405,501.056305 301.886841,501.113129 
	C291.963867,501.204895 282.042755,501.923279 272.123322,501.874878 
	C255.936340,501.795868 239.752289,501.240173 223.565155,501.025940 
	C213.120789,500.887695 202.671249,500.874939 192.227448,501.032501 
	C179.971954,501.217377 167.720734,501.868835 155.466553,501.901642 
	C145.784866,501.927551 136.103256,501.130768 126.418488,501.042938 
	C109.492783,500.889496 92.563522,500.878784 75.637970,501.040344 
	C63.240780,501.158630 50.848347,501.822815 38.451458,501.909393 
	C30.602932,501.964203 22.751535,501.254944 14.898654,501.180511 
	C10.604855,501.139771 6.305292,501.706909 2.008328,501.999939 
	C2.008829,497.312012 2.009329,492.624054 2.013328,487.470490 
z"/>
<path fill="#3894AB" opacity="1.000000" stroke="none" 
	d="
M511.989990,471.539001 
	C502.069855,471.675446 492.152557,471.086212 482.236237,471.101837 
	C473.825043,471.115051 465.417633,472.037598 457.003265,472.146179 
	C452.389587,472.205658 447.767456,471.103027 443.144806,471.066193 
	C431.409943,470.972626 419.672577,471.258453 407.936279,471.255280 
	C393.726349,471.251404 379.515045,470.951111 365.307129,471.081482 
	C356.893250,471.158691 348.487762,471.995850 340.072479,472.140442 
	C336.126923,472.208313 332.166321,471.116241 328.213837,471.124847 
	C317.483612,471.148224 306.754639,471.598694 296.024109,471.649200 
	C287.606049,471.688812 279.186127,471.250824 270.767456,471.266449 
	C260.181946,471.286102 249.597229,471.644012 239.011536,471.682343 
	C230.476334,471.713287 221.939178,471.537018 213.404770,471.360748 
	C203.812424,471.162659 194.222900,470.689880 184.630875,470.650818 
	C173.886475,470.607086 163.139786,470.872589 152.395660,471.082733 
	C141.976212,471.286499 131.559586,471.745728 121.140144,471.802032 
	C112.722229,471.847504 104.302528,471.329926 95.882622,471.293701 
	C80.140907,471.225983 64.398476,471.342926 48.656330,471.350800 
	C38.088066,471.356110 27.516739,471.148285 16.952883,471.352051 
	C12.215364,471.443390 7.492781,472.309113 2.388299,472.912201 
	C2.010740,469.308014 2.008302,465.615051 2.008349,461.461548 
	C9.578716,460.609558 17.149195,460.261810 24.713610,459.812134 
	C30.147848,459.489044 35.568630,458.886444 41.005688,458.683105 
	C44.469669,458.553558 47.951630,459.026947 51.426903,459.054016 
	C61.823021,459.135040 72.323654,458.221161 82.589264,459.394684 
	C94.595299,460.767181 106.697845,455.860962 118.511673,460.487000 
	C118.953865,460.660187 119.496574,460.619873 119.991051,460.609894 
	C129.742920,460.412598 139.494202,460.184479 149.246384,460.004333 
	C166.217804,459.690887 183.191010,459.462128 200.160919,459.083496 
	C207.886902,458.911133 215.605301,458.311157 223.330353,458.235901 
	C225.750473,458.212341 228.170883,459.686707 230.608994,459.746307 
	C236.187241,459.882629 241.776901,459.453094 247.361145,459.472961 
	C252.325775,459.490601 257.290253,459.975616 262.253235,459.949799 
	C271.541107,459.901459 280.827789,459.492126 290.115021,459.489288 
	C303.315491,459.485199 316.587738,460.592102 329.690704,459.524017 
	C338.076477,458.840485 346.090332,460.163635 354.263275,460.287598 
	C367.471436,460.487915 380.695526,459.180450 393.916931,459.087860 
	C409.133820,458.981323 424.354675,459.627747 439.574738,459.680206 
	C444.494598,459.697174 449.411621,458.633972 454.340820,458.514893 
	C457.594482,458.436249 460.861816,459.392242 464.133240,459.473663 
	C469.691071,459.612030 475.257080,459.436554 480.819427,459.373810 
	C490.922363,459.259888 501.025177,459.131866 511.558533,459.006104 
	C511.990417,463.026825 511.991821,467.051208 511.989990,471.539001 
z"/>
<path fill="#348FAC" opacity="1.000000" stroke="none" 
	d="
M2.005826,502.453186 
	C6.305292,501.706909 10.604855,501.139771 14.898654,501.180511 
	C22.751535,501.254944 30.602932,501.964203 38.451458,501.909393 
	C50.848347,501.822815 63.240780,501.158630 75.637970,501.040344 
	C92.563522,500.878784 109.492783,500.889496 126.418488,501.042938 
	C136.103256,501.130768 145.784866,501.927551 155.466553,501.901642 
	C167.720734,501.868835 179.971954,501.217377 192.227448,501.032501 
	C202.671249,500.874939 213.120789,500.887695 223.565155,501.025940 
	C239.752289,501.240173 255.936340,501.795868 272.123322,501.874878 
	C282.042755,501.923279 291.963867,501.204895 301.886841,501.113129 
	C308.027405,501.056305 314.172272,501.687134 320.316345,501.711304 
	C324.784546,501.728882 329.261993,500.956360 333.722534,501.064514 
	C345.834656,501.358337 358.033295,503.016357 370.012451,501.984253 
	C377.031403,501.379547 383.969177,501.929382 390.923157,501.370117 
	C395.033508,501.039520 399.205841,501.487213 403.350525,501.573669 
	C407.670166,501.663757 411.993042,501.876709 416.309021,501.782898 
	C420.289001,501.696442 424.258698,501.108582 428.238312,501.036377 
	C435.351807,500.907318 442.473846,500.838104 449.584167,501.035797 
	C462.143524,501.384949 474.815308,503.184998 487.210480,501.992340 
	C495.334351,501.210754 503.158325,501.995911 511.553314,502.000610 
	C511.998688,512.906921 512.825012,511.996948 502.056915,511.997406 
	C338.654266,512.004395 175.251633,512.002319 11.849000,512.002258 
	C10.849596,512.002258 9.850170,512.005859 8.850790,512.000854 
	C2.151285,511.967041 2.052447,511.872070 2.000771,505.404877 
	C1.994117,504.572113 2.002114,503.739258 2.005826,502.453186 
z"/>
<path fill="#4DB8A4" opacity="1.000000" stroke="none" 
	d="
M275.642761,187.265396 
	C278.080383,188.778351 279.972260,191.178116 282.292847,191.711014 
	C286.285828,192.627945 290.547546,192.610992 294.693634,192.581970 
	C308.786316,192.483383 322.877441,192.158203 336.970123,192.060272 
	C338.842377,192.047256 340.720306,192.845932 342.795166,193.593124 
	C326.350952,198.599274 309.664185,203.134750 293.075317,208.003555 
	C276.249756,212.941849 259.520844,218.209351 242.436554,223.399597 
	C240.799225,223.364273 239.468765,223.123367 238.151611,223.181992 
	C228.620483,223.606216 219.090622,224.064163 209.563477,224.570160 
	C205.908951,224.764236 206.513687,222.481140 206.957153,219.885468 
	C225.764267,210.370209 244.494400,201.179993 263.290344,192.126343 
	C267.164337,190.260300 271.283661,188.903610 275.642761,187.265396 
z"/>
<path fill="#44A8A7" opacity="1.000000" stroke="none" 
	d="
M138.399384,301.722412 
	C141.704788,304.359711 144.959442,305.429565 149.669556,304.972717 
	C156.127319,304.346344 162.767853,305.604095 169.794678,306.071899 
	C164.412308,319.477997 161.552185,333.442139 161.672134,348.536652 
	C154.055984,348.662750 146.936371,348.328400 139.816772,347.994049 
	C135.934998,332.809540 135.125793,317.517212 138.399384,301.722412 
z"/>
<path fill="#40A2A8" opacity="1.000000" stroke="none" 
	d="
M139.796295,348.409210 
	C146.936371,348.328400 154.055984,348.662750 161.607819,348.997681 
	C163.086884,362.818207 167.565964,375.511444 174.317596,387.724182 
	C169.542206,388.393158 165.083282,388.726746 160.619827,388.980530 
	C158.044861,389.126953 155.462570,389.144440 152.883575,389.219971 
	C146.236893,376.493774 142.425095,362.847687 139.796295,348.409210 
z"/>
<path fill="#3E9CAA" opacity="1.000000" stroke="none" 
	d="
M152.936600,389.567963 
	C155.462570,389.144440 158.044861,389.126953 160.619827,388.980530 
	C165.083282,388.726746 169.542206,388.393158 174.409531,388.051208 
	C181.484589,397.974396 189.856140,406.196228 200.212555,412.830139 
	C193.390717,413.890350 186.361572,414.825256 179.309021,415.523865 
	C176.083801,415.843414 172.812500,415.697754 169.217285,415.998016 
	C163.578186,407.460602 158.283905,398.688293 152.936600,389.567963 
z"/>
<path fill="#41A2A9" opacity="1.000000" stroke="none" 
	d="
M194.378815,337.163086 
	C197.992584,343.955353 201.380386,345.182587 212.543640,344.618530 
	C222.109192,344.135223 231.706497,344.276947 241.289871,344.151489 
	C243.102570,344.127747 244.933090,344.306396 246.725082,344.112152 
	C249.985382,343.758636 254.037170,344.192413 256.217987,342.411316 
	C258.033722,340.928284 257.620911,336.737640 258.249268,333.757690 
	C258.345490,333.301453 258.733490,332.906738 259.260773,332.252350 
	C259.535034,342.641174 259.535034,353.261230 259.535034,364.524109 
	C265.781158,364.524109 271.334290,364.524109 277.853363,364.524109 
	C270.241669,378.680725 259.789795,387.715515 244.833557,389.926758 
	C220.684769,393.497070 198.595963,376.567688 195.035446,352.371643 
	C194.314972,347.475525 194.407227,342.459808 194.378815,337.163086 
z"/>
<path fill="#41A2A9" opacity="1.000000" stroke="none" 
	d="
M314.954742,338.459534 
	C315.634247,338.275940 316.608398,338.408142 316.770874,338.843384 
	C318.957733,344.700867 324.160950,344.342041 328.800507,344.383362 
	C339.359222,344.477417 349.921326,344.095245 360.482849,344.023224 
	C363.751221,344.000916 366.034088,343.153290 366.102661,338.970032 
	C375.978912,346.595367 378.900177,360.781189 373.239166,373.020844 
	C368.004425,384.338867 356.948212,390.494446 345.124512,387.902557 
	C340.509155,386.890808 336.291565,384.148376 331.794800,382.454315 
	C330.626495,382.014160 329.089417,382.552887 327.479797,382.855408 
	C322.304443,383.374115 317.358734,384.005524 312.443878,383.819763 
	C310.550629,383.748169 308.727631,381.818451 306.668793,380.327698 
	C312.399292,366.894257 315.255768,353.237427 314.954742,338.459534 
z"/>
<path fill="#3E9CAA" opacity="1.000000" stroke="none" 
	d="
M170.845795,418.898376 
	C170.720795,418.887573 170.470871,418.676758 170.168274,418.221130 
	C170.339478,418.198486 170.541245,418.439148 170.845795,418.898376 
z"/>
</svg>