<svg version="1.1" xmlns="http://www.w3.org/2000/svg" xmlns:xlink="http://www.w3.org/1999/xlink" viewBox="446 214 318 206" preserveAspectRatio="xMidYMid meet">
<path fill="#FCFDFE" opacity="1.000000" stroke="none" d="&#10;M732.478638,325.354034 &#10;&#9;C750.704895,340.072052 751.409729,358.715942 745.354126,379.340881 &#10;&#9;C736.157593,398.240906 720.762878,407.645294 700.740112,410.222626 &#10;&#9;C687.377991,411.942596 674.154053,411.487122 661.342041,406.881836 &#10;&#9;C646.559998,401.568420 636.008179,391.918060 630.931824,375.945984 &#10;&#9;C630.164551,370.895508 629.554749,366.575531 628.933228,362.172302 &#10;&#9;C641.280396,362.172302 652.520752,362.172302 663.873413,362.172302 &#10;&#9;C664.442871,369.325989 667.455872,374.736267 674.012939,377.263336 &#10;&#9;C684.584045,381.337433 695.231018,381.149933 705.456238,376.080719 &#10;&#9;C712.212036,372.731476 714.657959,366.754944 713.133545,359.399567 &#10;&#9;C711.834351,353.130981 707.440979,350.209961 701.749939,348.937653 &#10;&#9;C692.177368,346.797516 682.528198,345.002228 672.944946,342.907532 &#10;&#9;C655.691101,339.136108 641.593689,331.066101 634.250549,313.570740 &#10;&#9;C629.374268,296.300537 630.636597,280.374237 641.420593,265.895599 &#10;&#9;C660.697266,245.433151 684.575928,242.624252 710.437988,248.266388 &#10;&#9;C719.696899,250.286346 727.635132,255.161057 734.558228,262.191101 &#10;&#9;C742.213806,271.674500 746.296692,282.134827 745.944702,294.585510 &#10;&#9;C734.458862,294.585510 723.090698,294.585510 711.743530,294.585510 &#10;&#9;C707.160278,277.666046 688.013062,271.040649 673.347534,281.215790 &#10;&#9;C668.005188,284.922424 666.163147,290.072937 666.812500,296.420013 &#10;&#9;C667.469116,302.837585 671.018433,307.129059 676.917664,308.742859 &#10;&#9;C686.059814,311.243774 695.553589,312.501831 704.626953,315.199677 &#10;&#9;C713.966431,317.976593 722.980835,321.847107 732.478638,325.354034 &#10;z" style="fill:rgb(252, 253, 254);stroke:none;color:rgb(255, 255, 255);stroke-width:1px;stroke-linecap:butt;stroke-linejoin:miter;opacity:1;font-family:&quot;Anthropic Sans&quot;, -apple-system, BlinkMacSystemFont, &quot;Segoe UI&quot;, sans-serif;font-size:16px;font-weight:400;text-anchor:start;dominant-baseline:auto"/>
<path fill="#FAFCFD" opacity="1.000000" stroke="none" d="&#10;M491.828491,388.006165 &#10;&#9;C487.099854,384.147797 482.342499,380.787903 478.137695,376.839569 &#10;&#9;C468.310913,367.612091 461.858856,356.254395 457.955078,343.021576 &#10;&#9;C456.186920,330.569672 454.148804,318.456757 453.152710,306.258759 &#10;&#9;C452.235962,295.031982 456.767120,284.880951 461.552002,274.578918 &#10;&#9;C469.673523,259.006104 481.193695,247.256027 496.642883,239.241409 &#10;&#9;C485.318329,253.571808 474.825134,268.317169 469.845764,286.954163 &#10;&#9;C468.763000,292.712494 467.276154,297.736267 467.039307,302.818298 &#10;&#9;C465.894135,327.390656 475.687653,347.398193 493.573151,363.694244 &#10;&#9;C521.251831,388.913147 558.530640,390.017609 586.141357,366.534058 &#10;&#9;C587.442627,365.427338 589.114807,363.780151 589.162537,362.336670 &#10;&#9;C589.446594,353.748840 589.302979,345.146881 589.302979,335.953979 &#10;&#9;C577.045044,335.953979 565.344116,335.953979 552.983948,335.953979 &#10;&#9;C552.983948,328.569885 552.983948,321.785645 553.097778,314.573792 &#10;&#9;C553.087524,310.937286 555.355469,311.515259 557.308838,311.531555 &#10;&#9;C568.407166,311.623962 579.505493,311.729218 590.604126,311.773682 &#10;&#9;C600.670654,311.813995 610.737427,311.782227 620.799500,311.782227 &#10;&#9;C621.119385,314.080902 621.322632,315.541534 621.415039,317.458588 &#10;&#9;C621.495972,337.607849 621.687866,357.300690 621.879761,376.993530 &#10;&#9;C621.879761,385.942322 621.879761,394.891144 621.879761,404.079041 &#10;&#9;C610.518188,404.079041 600.084656,404.079041 589.173462,404.079041 &#10;&#9;C589.173462,401.121918 589.173462,398.357300 589.173462,394.563568 &#10;&#9;C555.099915,411.277771 522.896240,408.674500 491.828491,388.006165 &#10;z" style="fill:rgb(250, 252, 253);stroke:none;color:rgb(255, 255, 255);stroke-width:1px;stroke-linecap:butt;stroke-linejoin:miter;opacity:1;font-family:&quot;Anthropic Sans&quot;, -apple-system, BlinkMacSystemFont, &quot;Segoe UI&quot;, sans-serif;font-size:16px;font-weight:400;text-anchor:start;dominant-baseline:auto"/>
<path fill="#F7FBFC" opacity="1.000000" stroke="none" d="&#10;M486.059021,286.546112 &#10;&#9;C487.461517,306.277466 495.813690,322.666931 507.182831,337.728638 &#10;&#9;C517.834961,351.840515 531.082336,363.141541 546.015137,372.520599 &#10;&#9;C547.489990,373.446869 548.936218,374.418762 551.530151,376.108429 &#10;&#9;C527.910889,376.834961 508.458252,370.775848 494.055267,352.922913 &#10;&#9;C478.885803,334.119904 473.203125,312.751801 478.086609,288.426392 &#10;&#9;C480.310150,281.695282 482.562592,275.388519 484.815033,269.081787 &#10;&#9;C485.190765,269.173187 485.566467,269.264618 485.942200,269.356018 &#10;&#9;C485.942200,274.933990 485.942200,280.511932 486.059021,286.546112 &#10;z" style="fill:rgb(247, 251, 252);stroke:none;color:rgb(255, 255, 255);stroke-width:1px;stroke-linecap:butt;stroke-linejoin:miter;opacity:1;font-family:&quot;Anthropic Sans&quot;, -apple-system, BlinkMacSystemFont, &quot;Segoe UI&quot;, sans-serif;font-size:16px;font-weight:400;text-anchor:start;dominant-baseline:auto"/>
<path fill="#F9FCFD" opacity="1.000000" stroke="none" d="&#10;M616.369141,262.061829 &#10;&#9;C616.448242,263.574799 616.619446,265.311005 615.864868,266.413666 &#10;&#9;C612.765381,270.942993 609.144714,275.125732 606.184204,279.736725 &#10;&#9;C603.911316,283.276764 601.769165,283.850677 597.703979,282.381714 &#10;&#9;C576.468628,274.708252 555.379944,274.346466 534.768311,284.821838 &#10;&#9;C533.418945,285.507629 531.871277,285.803314 529.012817,286.740509 &#10;&#9;C537.719543,277.964661 545.303467,270.320557 552.999695,262.356140 &#10;&#9;C554.998718,259.750641 557.324158,257.695068 558.669128,255.126175 &#10;&#9;C560.662476,251.318863 563.695435,250.421539 567.556458,250.169357 &#10;&#9;C584.975159,249.031616 601.182678,252.693176 616.369141,262.061829 &#10;z" style="fill:rgb(249, 252, 253);stroke:none;color:rgb(255, 255, 255);stroke-width:1px;stroke-linecap:butt;stroke-linejoin:miter;opacity:1;font-family:&quot;Anthropic Sans&quot;, -apple-system, BlinkMacSystemFont, &quot;Segoe UI&quot;, sans-serif;font-size:16px;font-weight:400;text-anchor:start;dominant-baseline:auto"/>
<path fill="#F7FBFC" opacity="1.000000" stroke="none" d="&#10;M501.992493,312.635193 &#10;&#9;C501.251556,314.596375 500.509125,316.192719 499.670258,317.996399 &#10;&#9;C491.278320,309.269684 491.880005,299.244598 494.181732,288.482513 &#10;&#9;C497.515686,277.011169 506.079010,270.914886 515.258057,265.146912 &#10;&#9;C525.684631,258.595001 536.004089,251.825974 545.957336,244.583969 &#10;&#9;C552.517883,239.810501 558.503479,234.173645 561.250488,226.040405 &#10;&#9;C561.537476,225.190582 562.396118,224.533829 563.120789,223.622391 &#10;&#9;C564.685730,233.001923 559.388977,246.934402 549.316467,260.257446 &#10;&#9;C537.381348,271.527069 525.200684,282.085663 514.029907,293.622040 &#10;&#9;C508.981506,298.835602 505.941895,305.994202 501.992493,312.635193 &#10;z" style="fill:rgb(247, 251, 252);stroke:none;color:rgb(255, 255, 255);stroke-width:1px;stroke-linecap:butt;stroke-linejoin:miter;opacity:1;font-family:&quot;Anthropic Sans&quot;, -apple-system, BlinkMacSystemFont, &quot;Segoe UI&quot;, sans-serif;font-size:16px;font-weight:400;text-anchor:start;dominant-baseline:auto"/>
<path fill="#F7FBFC" opacity="1.000000" stroke="none" d="&#10;M517.274536,239.605698 &#10;&#9;C517.509155,232.424347 520.370361,227.947418 525.339417,226.492752 &#10;&#9;C530.664856,224.933777 536.582581,226.946747 539.495117,231.308014 &#10;&#9;C542.448730,235.730804 542.192139,241.591217 538.789856,245.747498 &#10;&#9;C535.626404,249.612045 531.417175,250.896927 526.685059,249.888626 &#10;&#9;C521.433411,248.769623 518.377747,245.261353 517.274536,239.605698 &#10;z" style="fill:rgb(247, 251, 252);stroke:none;color:rgb(255, 255, 255);stroke-width:1px;stroke-linecap:butt;stroke-linejoin:miter;opacity:1;font-family:&quot;Anthropic Sans&quot;, -apple-system, BlinkMacSystemFont, &quot;Segoe UI&quot;, sans-serif;font-size:16px;font-weight:400;text-anchor:start;dominant-baseline:auto"/>
<path fill="#F4FAFA" opacity="1.000000" stroke="none" d="&#10;M512.104065,257.191833 &#10;&#9;C511.434082,263.922089 507.975098,267.538025 502.627930,267.540710 &#10;&#9;C497.706268,267.543182 493.678741,263.942108 493.176025,259.089569 &#10;&#9;C492.647064,253.983612 495.951538,249.560425 501.000214,248.616547 &#10;&#9;C506.214386,247.641754 510.243500,250.616364 512.104065,257.191833 &#10;z" style="fill:rgb(244, 250, 250);stroke:none;color:rgb(255, 255, 255);stroke-width:1px;stroke-linecap:butt;stroke-linejoin:miter;opacity:1;font-family:&quot;Anthropic Sans&quot;, -apple-system, BlinkMacSystemFont, &quot;Segoe UI&quot;, sans-serif;font-size:16px;font-weight:400;text-anchor:start;dominant-baseline:auto"/>
<path fill="#F7FBFC" opacity="1.000000" stroke="none" d="&#10;M533.938110,313.664398 &#10;&#9;C533.536743,324.669617 527.247803,330.373199 518.568115,328.052460 &#10;&#9;C512.884033,326.532684 509.951996,322.292694 509.408997,314.485657 &#10;&#9;C511.375732,308.050781 515.056091,303.969299 521.875122,303.860596 &#10;&#9;C527.521179,303.770538 531.468323,306.985962 533.938110,313.664398 &#10;z" style="fill:rgb(247, 251, 252);stroke:none;color:rgb(255, 255, 255);stroke-width:1px;stroke-linecap:butt;stroke-linejoin:miter;opacity:1;font-family:&quot;Anthropic Sans&quot;, -apple-system, BlinkMacSystemFont, &quot;Segoe UI&quot;, sans-serif;font-size:16px;font-weight:400;text-anchor:start;dominant-baseline:auto"/>
<path fill="#F5FAFB" opacity="1.000000" stroke="none" d="&#10;M517.645752,343.348145 &#10;&#9;C513.681763,338.661987 509.964691,334.230255 506.247589,329.798553 &#10;&#9;C521.246277,335.100555 534.667114,335.325592 545.671814,321.103149 &#10;&#9;C544.001526,340.852386 546.292114,359.147369 561.365417,373.661346 &#10;&#9;C544.245911,367.262085 530.100830,356.836060 517.645752,343.348145 &#10;z" style="fill:rgb(245, 250, 251);stroke:none;color:rgb(255, 255, 255);stroke-width:1px;stroke-linecap:butt;stroke-linejoin:miter;opacity:1;font-family:&quot;Anthropic Sans&quot;, -apple-system, BlinkMacSystemFont, &quot;Segoe UI&quot;, sans-serif;font-size:16px;font-weight:400;text-anchor:start;dominant-baseline:auto"/>
</svg>